<mxfile host="65bd71144e">
    <diagram id="CKUfxzA7n6kMFF4QLO4l" name="Azure Typical ML Infrastructure">
        <mxGraphModel dx="1248" dy="646" grid="1" gridSize="10" guides="1" tooltips="1" connect="1" arrows="1" fold="1" page="1" pageScale="1" pageWidth="827" pageHeight="1169" math="0" shadow="0">
            <root>
                <mxCell id="udWYP1WWOplUZx62Iz2o-0"/>
                <mxCell id="udWYP1WWOplUZx62Iz2o-1" parent="udWYP1WWOplUZx62Iz2o-0"/>
                <mxCell id="udWYP1WWOplUZx62Iz2o-2" value="Azure" style="rounded=0;whiteSpace=wrap;html=1;strokeColor=default;verticalAlign=top;" parent="udWYP1WWOplUZx62Iz2o-1" vertex="1">
                    <mxGeometry x="60" y="40" width="610" height="670" as="geometry"/>
                </mxCell>
                <mxCell id="udWYP1WWOplUZx62Iz2o-4" value="" style="aspect=fixed;html=1;points=[];align=center;image;fontSize=12;image=img/lib/azure2/general/Resource_Groups.svg;strokeColor=default;" parent="udWYP1WWOplUZx62Iz2o-1" vertex="1">
                    <mxGeometry x="80" y="80" width="74.38" height="70" as="geometry"/>
                </mxCell>
                <mxCell id="udWYP1WWOplUZx62Iz2o-5" value="" style="sketch=0;aspect=fixed;html=1;points=[];align=center;image;fontSize=12;image=img/lib/mscae/Machine_Learning_Service_Workspaces.svg;strokeColor=default;" parent="udWYP1WWOplUZx62Iz2o-1" vertex="1">
                    <mxGeometry x="201.25" y="470" width="46" height="50" as="geometry"/>
                </mxCell>
                <mxCell id="ovvLbb9h5ZwrGou-pWSl-0" value="" style="aspect=fixed;html=1;points=[];align=center;image;fontSize=12;image=img/lib/azure2/security/Key_Vaults.svg;strokeColor=default;" parent="udWYP1WWOplUZx62Iz2o-1" vertex="1">
                    <mxGeometry x="201.25" y="401" width="50" height="50" as="geometry"/>
                </mxCell>
                <mxCell id="ovvLbb9h5ZwrGou-pWSl-1" value="" style="aspect=fixed;html=1;points=[];align=center;image;fontSize=12;image=img/lib/azure2/databases/Azure_SQL.svg;strokeColor=default;" parent="udWYP1WWOplUZx62Iz2o-1" vertex="1">
                    <mxGeometry x="200.5" y="160" width="64" height="46" as="geometry"/>
                </mxCell>
                <mxCell id="4LrSgyzKuFNMXZsCVk5d-0" value="" style="aspect=fixed;html=1;points=[];align=center;image;fontSize=12;image=img/lib/azure2/storage/Storage_Accounts.svg;strokeColor=default;" parent="udWYP1WWOplUZx62Iz2o-1" vertex="1">
                    <mxGeometry x="200.5" y="280" width="62.5" height="50" as="geometry"/>
                </mxCell>
                <mxCell id="4LrSgyzKuFNMXZsCVk5d-1" value="" style="aspect=fixed;html=1;points=[];align=center;image;fontSize=12;image=img/lib/azure2/databases/SQL_Database.svg;strokeColor=default;" parent="udWYP1WWOplUZx62Iz2o-1" vertex="1">
                    <mxGeometry x="300" y="230" width="37.5" height="50" as="geometry"/>
                </mxCell>
                <mxCell id="4LrSgyzKuFNMXZsCVk5d-3" value="" style="aspect=fixed;html=1;points=[];align=center;image;fontSize=12;image=img/lib/azure2/compute/Kubernetes_Services.svg;strokeColor=default;" parent="udWYP1WWOplUZx62Iz2o-1" vertex="1">
                    <mxGeometry x="282" y="599.5" width="68" height="60" as="geometry"/>
                </mxCell>
                <mxCell id="4LrSgyzKuFNMXZsCVk5d-4" value="" style="aspect=fixed;html=1;points=[];align=center;image;fontSize=12;image=img/lib/azure2/compute/Container_Instances.svg;strokeColor=default;" parent="udWYP1WWOplUZx62Iz2o-1" vertex="1">
                    <mxGeometry x="282" y="530" width="64" height="68" as="geometry"/>
                </mxCell>
                <mxCell id="4LrSgyzKuFNMXZsCVk5d-5" value="" style="sketch=0;html=1;dashed=0;whitespace=wrap;fillColor=#2875E2;strokeColor=#ffffff;points=[[0.005,0.63,0],[0.1,0.2,0],[0.9,0.2,0],[0.5,0,0],[0.995,0.63,0],[0.72,0.99,0],[0.5,1,0],[0.28,0.99,0]];shape=mxgraph.kubernetes.icon;prIcon=api" parent="udWYP1WWOplUZx62Iz2o-1" vertex="1">
                    <mxGeometry x="560" y="544.5" width="50" height="48" as="geometry"/>
                </mxCell>
                <mxCell id="4LrSgyzKuFNMXZsCVk5d-6" value="" style="sketch=0;aspect=fixed;html=1;points=[];align=center;image;fontSize=12;image=img/lib/mscae/BlobBlock.svg;strokeColor=default;" parent="udWYP1WWOplUZx62Iz2o-1" vertex="1">
                    <mxGeometry x="300" y="359" width="50" height="42" as="geometry"/>
                </mxCell>
                <mxCell id="4LrSgyzKuFNMXZsCVk5d-7" value="Resource group" style="text;html=1;strokeColor=none;fillColor=none;align=center;verticalAlign=middle;whiteSpace=wrap;rounded=0;" parent="udWYP1WWOplUZx62Iz2o-1" vertex="1">
                    <mxGeometry x="170" y="97" width="150" height="30" as="geometry"/>
                </mxCell>
                <mxCell id="4LrSgyzKuFNMXZsCVk5d-8" value="Azure SQL Server" style="text;html=1;strokeColor=none;fillColor=none;align=center;verticalAlign=middle;whiteSpace=wrap;rounded=0;fontSize=10;" parent="udWYP1WWOplUZx62Iz2o-1" vertex="1">
                    <mxGeometry x="270" y="168" width="150" height="30" as="geometry"/>
                </mxCell>
                <mxCell id="4LrSgyzKuFNMXZsCVk5d-9" value="&lt;div style=&quot;text-align: left; font-size: 10px;&quot;&gt;&lt;span style=&quot;font-size: 10px;&quot;&gt;&lt;font style=&quot;font-size: 10px;&quot;&gt;SQL database&lt;/font&gt;&lt;/span&gt;&lt;br style=&quot;font-size: 10px;&quot;&gt;&lt;/div&gt;" style="text;html=1;strokeColor=none;fillColor=none;align=center;verticalAlign=middle;whiteSpace=wrap;rounded=0;fontSize=10;fontColor=#000000;" parent="udWYP1WWOplUZx62Iz2o-1" vertex="1">
                    <mxGeometry x="339" y="240" width="150" height="30" as="geometry"/>
                </mxCell>
                <mxCell id="4LrSgyzKuFNMXZsCVk5d-12" value="" style="endArrow=none;html=1;fontColor=#FFFFFF;entryX=0.516;entryY=1.023;entryDx=0;entryDy=0;entryPerimeter=0;" parent="udWYP1WWOplUZx62Iz2o-1" target="udWYP1WWOplUZx62Iz2o-4" edge="1">
                    <mxGeometry width="50" height="50" relative="1" as="geometry">
                        <mxPoint x="118" y="680" as="sourcePoint"/>
                        <mxPoint x="220" y="120" as="targetPoint"/>
                        <Array as="points"/>
                    </mxGeometry>
                </mxCell>
                <mxCell id="4LrSgyzKuFNMXZsCVk5d-13" value="" style="endArrow=none;html=1;fontColor=#FFFFFF;dashed=1;" parent="udWYP1WWOplUZx62Iz2o-1" edge="1">
                    <mxGeometry width="50" height="50" relative="1" as="geometry">
                        <mxPoint x="230" y="260" as="sourcePoint"/>
                        <mxPoint x="230" y="210" as="targetPoint"/>
                    </mxGeometry>
                </mxCell>
                <mxCell id="4LrSgyzKuFNMXZsCVk5d-14" value="" style="endArrow=none;html=1;fontColor=#FFFFFF;dashed=1;" parent="udWYP1WWOplUZx62Iz2o-1" edge="1">
                    <mxGeometry width="50" height="50" relative="1" as="geometry">
                        <mxPoint x="230" y="260" as="sourcePoint"/>
                        <mxPoint x="280" y="260" as="targetPoint"/>
                    </mxGeometry>
                </mxCell>
                <mxCell id="4LrSgyzKuFNMXZsCVk5d-16" value="" style="endArrow=none;html=1;fontColor=#FFFFFF;dashed=1;" parent="udWYP1WWOplUZx62Iz2o-1" edge="1">
                    <mxGeometry width="50" height="50" relative="1" as="geometry">
                        <mxPoint x="120" y="180" as="sourcePoint"/>
                        <mxPoint x="188.25" y="180" as="targetPoint"/>
                    </mxGeometry>
                </mxCell>
                <mxCell id="4LrSgyzKuFNMXZsCVk5d-17" value="Storage account" style="text;whiteSpace=wrap;html=1;fontColor=#000000;align=center;fontSize=10;" parent="udWYP1WWOplUZx62Iz2o-1" vertex="1">
                    <mxGeometry x="270" y="290" width="140" height="30" as="geometry"/>
                </mxCell>
                <mxCell id="4LrSgyzKuFNMXZsCVk5d-18" value="" style="endArrow=none;html=1;fontColor=#FFFFFF;" parent="udWYP1WWOplUZx62Iz2o-1" edge="1">
                    <mxGeometry width="50" height="50" relative="1" as="geometry">
                        <mxPoint x="230" y="390" as="sourcePoint"/>
                        <mxPoint x="230" y="340" as="targetPoint"/>
                    </mxGeometry>
                </mxCell>
                <mxCell id="4LrSgyzKuFNMXZsCVk5d-19" value="" style="endArrow=none;html=1;fontColor=#FFFFFF;" parent="udWYP1WWOplUZx62Iz2o-1" edge="1">
                    <mxGeometry width="50" height="50" relative="1" as="geometry">
                        <mxPoint x="230" y="390" as="sourcePoint"/>
                        <mxPoint x="280" y="390" as="targetPoint"/>
                    </mxGeometry>
                </mxCell>
                <mxCell id="4LrSgyzKuFNMXZsCVk5d-20" value="Blob container" style="text;whiteSpace=wrap;html=1;fontColor=#000000;align=center;fontSize=10;" parent="udWYP1WWOplUZx62Iz2o-1" vertex="1">
                    <mxGeometry x="350" y="365" width="140" height="30" as="geometry"/>
                </mxCell>
                <mxCell id="4LrSgyzKuFNMXZsCVk5d-21" value="Key Vault" style="text;html=1;strokeColor=none;fillColor=none;align=center;verticalAlign=middle;whiteSpace=wrap;rounded=0;fontSize=10;fontColor=#000000;" parent="udWYP1WWOplUZx62Iz2o-1" vertex="1">
                    <mxGeometry x="251.25" y="411" width="150" height="30" as="geometry"/>
                </mxCell>
                <mxCell id="jZKEu-wql2WwFmqfYFfo-0" value="Machine learning" style="text;whiteSpace=wrap;html=1;fontSize=10;fontColor=#000000;align=center;" parent="udWYP1WWOplUZx62Iz2o-1" vertex="1">
                    <mxGeometry x="266.5" y="480" width="151.25" height="30" as="geometry"/>
                </mxCell>
                <mxCell id="jZKEu-wql2WwFmqfYFfo-1" value="" style="endArrow=none;html=1;fontColor=#FFFFFF;" parent="udWYP1WWOplUZx62Iz2o-1" edge="1">
                    <mxGeometry width="50" height="50" relative="1" as="geometry">
                        <mxPoint x="120" y="300" as="sourcePoint"/>
                        <mxPoint x="188.25" y="300" as="targetPoint"/>
                    </mxGeometry>
                </mxCell>
                <mxCell id="jZKEu-wql2WwFmqfYFfo-2" value="" style="endArrow=none;html=1;fontColor=#FFFFFF;" parent="udWYP1WWOplUZx62Iz2o-1" edge="1">
                    <mxGeometry width="50" height="50" relative="1" as="geometry">
                        <mxPoint x="120" y="420" as="sourcePoint"/>
                        <mxPoint x="188.25" y="420" as="targetPoint"/>
                    </mxGeometry>
                </mxCell>
                <mxCell id="jZKEu-wql2WwFmqfYFfo-3" value="" style="endArrow=none;html=1;fontColor=#FFFFFF;" parent="udWYP1WWOplUZx62Iz2o-1" edge="1">
                    <mxGeometry width="50" height="50" relative="1" as="geometry">
                        <mxPoint x="120" y="494.66" as="sourcePoint"/>
                        <mxPoint x="188.25" y="494.66" as="targetPoint"/>
                    </mxGeometry>
                </mxCell>
                <mxCell id="jZKEu-wql2WwFmqfYFfo-5" value="Kubernetes" style="text;whiteSpace=wrap;html=1;fontSize=10;fontColor=#000000;" parent="udWYP1WWOplUZx62Iz2o-1" vertex="1">
                    <mxGeometry x="372.75" y="614.5" width="80" height="30" as="geometry"/>
                </mxCell>
                <mxCell id="jZKEu-wql2WwFmqfYFfo-6" value="Container instance" style="text;whiteSpace=wrap;html=1;fontSize=10;fontColor=#000000;" parent="udWYP1WWOplUZx62Iz2o-1" vertex="1">
                    <mxGeometry x="370.75" y="555" width="110" height="30" as="geometry"/>
                </mxCell>
                <mxCell id="jZKEu-wql2WwFmqfYFfo-7" value="" style="sketch=0;outlineConnect=0;fontColor=#232F3E;gradientColor=none;fillColor=#067F68;strokeColor=none;dashed=0;verticalLabelPosition=bottom;verticalAlign=top;align=center;html=1;fontSize=12;fontStyle=0;aspect=fixed;pointerEvents=1;shape=mxgraph.aws4.sagemaker_model;" parent="udWYP1WWOplUZx62Iz2o-1" vertex="1">
                    <mxGeometry x="461" y="539" width="59" height="59" as="geometry"/>
                </mxCell>
                <mxCell id="jZKEu-wql2WwFmqfYFfo-8" value="Model" style="text;whiteSpace=wrap;html=1;fontSize=10;fontColor=#000000;align=center;" parent="udWYP1WWOplUZx62Iz2o-1" vertex="1">
                    <mxGeometry x="520" y="555" width="40" height="30" as="geometry"/>
                </mxCell>
                <mxCell id="jZKEu-wql2WwFmqfYFfo-9" value="" style="endArrow=none;html=1;fontColor=#FFFFFF;" parent="udWYP1WWOplUZx62Iz2o-1" edge="1">
                    <mxGeometry width="50" height="50" relative="1" as="geometry">
                        <mxPoint x="230" y="580" as="sourcePoint"/>
                        <mxPoint x="230" y="530" as="targetPoint"/>
                    </mxGeometry>
                </mxCell>
                <mxCell id="jZKEu-wql2WwFmqfYFfo-10" value="" style="endArrow=none;html=1;fontColor=#FFFFFF;" parent="udWYP1WWOplUZx62Iz2o-1" edge="1">
                    <mxGeometry width="50" height="50" relative="1" as="geometry">
                        <mxPoint x="230" y="580" as="sourcePoint"/>
                        <mxPoint x="280" y="580" as="targetPoint"/>
                    </mxGeometry>
                </mxCell>
                <mxCell id="jZKEu-wql2WwFmqfYFfo-11" value="" style="endArrow=none;html=1;fontColor=#FFFFFF;" parent="udWYP1WWOplUZx62Iz2o-1" edge="1">
                    <mxGeometry width="50" height="50" relative="1" as="geometry">
                        <mxPoint x="230" y="625.31" as="sourcePoint"/>
                        <mxPoint x="230" y="575.31" as="targetPoint"/>
                    </mxGeometry>
                </mxCell>
                <mxCell id="jZKEu-wql2WwFmqfYFfo-12" value="" style="endArrow=none;html=1;fontColor=#FFFFFF;" parent="udWYP1WWOplUZx62Iz2o-1" edge="1">
                    <mxGeometry width="50" height="50" relative="1" as="geometry">
                        <mxPoint x="230" y="625.31" as="sourcePoint"/>
                        <mxPoint x="280" y="625.31" as="targetPoint"/>
                    </mxGeometry>
                </mxCell>
                <mxCell id="jZKEu-wql2WwFmqfYFfo-13" value="API" style="text;whiteSpace=wrap;html=1;fontSize=10;fontColor=#000000;align=center;" parent="udWYP1WWOplUZx62Iz2o-1" vertex="1">
                    <mxGeometry x="610" y="555" width="40" height="30" as="geometry"/>
                </mxCell>
                <mxCell id="jZKEu-wql2WwFmqfYFfo-14" value="" style="sketch=0;html=1;dashed=0;whitespace=wrap;fillColor=#2875E2;strokeColor=#ffffff;points=[[0.005,0.63,0],[0.1,0.2,0],[0.9,0.2,0],[0.5,0,0],[0.995,0.63,0],[0.72,0.99,0],[0.5,1,0],[0.28,0.99,0]];shape=mxgraph.kubernetes.icon;prIcon=api" parent="udWYP1WWOplUZx62Iz2o-1" vertex="1">
                    <mxGeometry x="560" y="606" width="50" height="48" as="geometry"/>
                </mxCell>
                <mxCell id="jZKEu-wql2WwFmqfYFfo-15" value="" style="sketch=0;outlineConnect=0;fontColor=#232F3E;gradientColor=none;fillColor=#067F68;strokeColor=none;dashed=0;verticalLabelPosition=bottom;verticalAlign=top;align=center;html=1;fontSize=12;fontStyle=0;aspect=fixed;pointerEvents=1;shape=mxgraph.aws4.sagemaker_model;" parent="udWYP1WWOplUZx62Iz2o-1" vertex="1">
                    <mxGeometry x="461" y="600.5" width="59" height="59" as="geometry"/>
                </mxCell>
                <mxCell id="jZKEu-wql2WwFmqfYFfo-16" value="Model" style="text;whiteSpace=wrap;html=1;fontSize=10;fontColor=#000000;align=center;" parent="udWYP1WWOplUZx62Iz2o-1" vertex="1">
                    <mxGeometry x="520" y="616.5" width="40" height="30" as="geometry"/>
                </mxCell>
                <mxCell id="jZKEu-wql2WwFmqfYFfo-17" value="API" style="text;whiteSpace=wrap;html=1;fontSize=10;fontColor=#000000;align=center;" parent="udWYP1WWOplUZx62Iz2o-1" vertex="1">
                    <mxGeometry x="610" y="616.5" width="40" height="30" as="geometry"/>
                </mxCell>
            </root>
        </mxGraphModel>
    </diagram>
    <diagram id="u31ltpiUI2J4FtzFy4VE" name="Conceptual">
        <mxGraphModel dx="1040" dy="538" grid="1" gridSize="10" guides="1" tooltips="1" connect="1" arrows="1" fold="1" page="1" pageScale="1" pageWidth="827" pageHeight="1169" math="0" shadow="0">
            <root>
                <mxCell id="YBwU7Yhgo7duEBONtjg1-0"/>
                <mxCell id="YBwU7Yhgo7duEBONtjg1-1" parent="YBwU7Yhgo7duEBONtjg1-0"/>
                <mxCell id="3x4_MJZCkBuaan5wwYKc-7" value="Production" style="rounded=0;whiteSpace=wrap;html=1;verticalAlign=top;fontSize=10;" vertex="1" parent="YBwU7Yhgo7duEBONtjg1-1">
                    <mxGeometry x="430" y="160" width="300" height="100" as="geometry"/>
                </mxCell>
                <mxCell id="xXkg8wMQrReoYRb-pQYt-5" style="edgeStyle=none;html=1;entryX=-0.015;entryY=0.492;entryDx=0;entryDy=0;entryPerimeter=0;" edge="1" parent="YBwU7Yhgo7duEBONtjg1-1" target="F8580hPIrBrldiAWpLTl-0">
                    <mxGeometry relative="1" as="geometry">
                        <mxPoint x="220" y="209.76" as="sourcePoint"/>
                        <mxPoint x="300" y="209.76" as="targetPoint"/>
                    </mxGeometry>
                </mxCell>
                <mxCell id="xXkg8wMQrReoYRb-pQYt-6" style="edgeStyle=none;html=1;" edge="1" parent="YBwU7Yhgo7duEBONtjg1-1">
                    <mxGeometry relative="1" as="geometry">
                        <mxPoint x="430" y="209.71" as="targetPoint"/>
                        <mxPoint x="370" y="209.71" as="sourcePoint"/>
                    </mxGeometry>
                </mxCell>
                <mxCell id="00tVP6rjQiT3EVW9EcQ1-0" value="" style="aspect=fixed;html=1;points=[];align=center;image;fontSize=12;image=img/lib/azure2/databases/SQL_Database.svg;strokeColor=default;" vertex="1" parent="YBwU7Yhgo7duEBONtjg1-1">
                    <mxGeometry x="110" y="290" width="37.5" height="50" as="geometry"/>
                </mxCell>
                <mxCell id="xXkg8wMQrReoYRb-pQYt-0" value="" style="sketch=0;aspect=fixed;html=1;points=[];align=center;image;fontSize=12;image=img/lib/mscae/BlobBlock.svg;strokeColor=default;" vertex="1" parent="YBwU7Yhgo7duEBONtjg1-1">
                    <mxGeometry x="220" y="290" width="60" height="50.4" as="geometry"/>
                </mxCell>
                <mxCell id="xXkg8wMQrReoYRb-pQYt-7" value="" style="endArrow=none;dashed=1;html=1;strokeWidth=1;endFill=0;startArrow=classic;startFill=1;exitX=0;exitY=0.5;exitDx=0;exitDy=0;" edge="1" parent="YBwU7Yhgo7duEBONtjg1-1" source="icj_MJOhULwOusPO3SDc-1">
                    <mxGeometry width="50" height="50" relative="1" as="geometry">
                        <mxPoint x="430" y="140" as="sourcePoint"/>
                        <mxPoint x="370" y="209.76" as="targetPoint"/>
                        <Array as="points">
                            <mxPoint x="370" y="100"/>
                        </Array>
                    </mxGeometry>
                </mxCell>
                <mxCell id="F8580hPIrBrldiAWpLTl-0" value="" style="sketch=0;aspect=fixed;html=1;points=[];align=center;image;fontSize=12;image=img/lib/mscae/Machine_Learning_Service_Workspaces.svg;strokeColor=default;" vertex="1" parent="YBwU7Yhgo7duEBONtjg1-1">
                    <mxGeometry x="310" y="180" width="55.2" height="60" as="geometry"/>
                </mxCell>
                <mxCell id="T7lDXysi-g5YxttaCRHw-0" value="" style="aspect=fixed;html=1;points=[];align=center;image;fontSize=12;image=img/lib/azure2/security/Key_Vaults.svg;strokeColor=default;" vertex="1" parent="YBwU7Yhgo7duEBONtjg1-1">
                    <mxGeometry x="80" y="185" width="50" height="50" as="geometry"/>
                </mxCell>
                <mxCell id="T7lDXysi-g5YxttaCRHw-1" value="" style="endArrow=classic;startArrow=classic;html=1;exitX=0;exitY=0.5;exitDx=0;exitDy=0;entryX=1.012;entryY=0.505;entryDx=0;entryDy=0;entryPerimeter=0;" edge="1" parent="YBwU7Yhgo7duEBONtjg1-1" source="2mJ2WPkWx5FSmx0nUPCS-4" target="T7lDXysi-g5YxttaCRHw-0">
                    <mxGeometry width="50" height="50" relative="1" as="geometry">
                        <mxPoint x="204.49367088607596" y="130" as="sourcePoint"/>
                        <mxPoint x="280" y="230" as="targetPoint"/>
                    </mxGeometry>
                </mxCell>
                <mxCell id="2mJ2WPkWx5FSmx0nUPCS-0" value="" style="endArrow=classic;html=1;" edge="1" parent="YBwU7Yhgo7duEBONtjg1-1">
                    <mxGeometry width="50" height="50" relative="1" as="geometry">
                        <mxPoint x="190" y="260" as="sourcePoint"/>
                        <mxPoint x="190" y="240" as="targetPoint"/>
                    </mxGeometry>
                </mxCell>
                <mxCell id="2mJ2WPkWx5FSmx0nUPCS-1" value="" style="endArrow=none;html=1;" edge="1" parent="YBwU7Yhgo7duEBONtjg1-1">
                    <mxGeometry width="50" height="50" relative="1" as="geometry">
                        <mxPoint x="130" y="260" as="sourcePoint"/>
                        <mxPoint x="250" y="260" as="targetPoint"/>
                        <Array as="points">
                            <mxPoint x="190" y="260"/>
                        </Array>
                    </mxGeometry>
                </mxCell>
                <mxCell id="2mJ2WPkWx5FSmx0nUPCS-2" value="" style="endArrow=none;html=1;startArrow=classic;startFill=1;" edge="1" parent="YBwU7Yhgo7duEBONtjg1-1">
                    <mxGeometry width="50" height="50" relative="1" as="geometry">
                        <mxPoint x="130" y="280" as="sourcePoint"/>
                        <mxPoint x="130" y="260" as="targetPoint"/>
                    </mxGeometry>
                </mxCell>
                <mxCell id="2mJ2WPkWx5FSmx0nUPCS-3" value="" style="endArrow=none;html=1;startArrow=classic;startFill=1;" edge="1" parent="YBwU7Yhgo7duEBONtjg1-1">
                    <mxGeometry width="50" height="50" relative="1" as="geometry">
                        <mxPoint x="250" y="280" as="sourcePoint"/>
                        <mxPoint x="250" y="260" as="targetPoint"/>
                    </mxGeometry>
                </mxCell>
                <mxCell id="2mJ2WPkWx5FSmx0nUPCS-4" value="" style="shape=image;imageAspect=0;aspect=fixed;verticalLabelPosition=bottom;verticalAlign=top;image=data:image/png,iVBORw0KGgoAAAANSUhEUgAAAyAAAAMgCAYAAADbcAZoAAAABGdBTUEAALGPC/xhBQAAACBjSFJNAAB6JgAAgIQAAPoAAACA6AAAdTAAAOpgAAA6mAAAF3CculE8AAAABmJLR0QA/wD/AP+gvaeTAAAAB3RJTUUH4QgKFg0lqAC86gAAgABJREFUeNrt3XecXHW9//H358xsGiShIx1EQAkIkrKbAJpACKAgzeRKF1H4KSpgoXtdvfcKSAlepNrFdhOKMSiCSAKGbDaFntANRUCBAAlJNtmdOZ/fH5tAyibZMqe/Xo/H/ckv2ZkzO2fO93yemWYiIqLUN7hxcr9eC1v6VHqXNgms1EfufcNAmwRe7e0ebCSzAeZhb5P1d/ON5dZb8oGS9TOpt8s3lSSX+pnUe/Vrt40lr1v1T1zqb1JZvtoPDpBUWv2y7/3AO5L52rfcl0lqad+MFsutrf3Pw4WShZJCky1082UK1SLTIpO1ysJFci118+XmwTuSWqqyhSZbqGplUa9y2zvTLjthHdskIqI0Z9wFREQxQuKMm+qCgZturqDP5haEm0m+uaTNJW1u7ltI2lzum8ls5Z9vtuJ/67q/VY/oYlHN/t75vzYtkmuRpIWS3pZrgZm9KfcFHugNuRaYfIG8tMDKviBcvOzV5mtPWsQjkYgIgBARZbqRjT/v01rZZLtK1bYNPNzRAm0berC9WbiDh8E2Mv/ACkj073iYTmiYzzI+un/dLZJek/SamV6X6xWXvy7XK4Hs1TDUS33766WpjeMW88gmIgIgRESxN/iMm+rKW227s8K2nc21rbvtaIFtK/ftJe0gaVtJW3Z5TgYfSeCjK70t6Z8mvRi6Xjazl839H6EFz/cKlj8/7bIT3+boICICIERE3Wpk45Rya+WdnTy0Dym03dx8d0m7SfqQpJ0lL9d01AUfacdHZ673bbk9L4XPy+0fMj3nbk+Wqnq6afy4tziqiIgACBGRhl88ebvQwz0V+m4mfcik3d20m6RdtM73WXR+gAUfhcHHeq/apTfM9KTcnzIPnjbTvEq1OnfW1ce/zFFIRACEiCiHjWycUl7S8u4eZfM9PQgHyYPBkg+R9IGoBljwAT460UJJT0g+VwrmKdCcvn31CO83ISIAQkSUoQafP2FguVzeW7I9LbRBkgZL2k9S37iGefABPnp4Nn7N3Ke59KCCYE5LddnDj115yhKObiICIERESWPjjJvqem+2zb7VwEeYNELyBkk71n7uBB/gIyZ8dHylVUnz5JptpukeBtObrxr7JN97QkQAhIgo4oY3TthMy/uM8CAcLrf9JQ2V1K/DwQ18gI984GNdvS2pyWRNbnqw0q9f85zGI5eyShARACEi6kHDLrx9d1Owv8wOMNlwyT/c8VoFPsBHofDRUa1ynykFU1zVqaVqualp/LgWVhEiAiBEROtpZOMdm7S0lQ4O3Me4/FDJdury4AY+wEfx8NHRYbDcFDZLdm8QhHc39Xt2thobQ1YZIgIgRFToxo6dUHpp17p9LSiNlvtomT6hdX78LfgAH+Cj81ex1h8uMOk+d7s3dL+LjwAmIgBCRIVp+MWTt3OvHi7ZGEmjJW1ak6kLfIAP8NGVnfuwS38shfpj09XHP8zKREQAhIhy1YiL/7RTqMpxch0naXjP1xvwAT7ARzfx0dHJ/yV3TZZ8Ut/+20yZ2jiqwqpFRACEiDKJjqpXjjZprKQRtVtjwAf4AB+1wkcHvS3pTpNPbFv07l/m3HxmG6sZEQEQIkpt+18yaY9qaJ+R+XFyfSzywQ18gA/wEdn94NIbgYW3mez3TVcc/wDfO0JEAISIUtGKT646wVynS9ovtiEWfIAP8BHnvntR5rd4tXTLzKs/+wwrHxEBECKKObf6i/440lyny+xYSX1jHWLBB/gAH8ntO7MZpvBXbUHdb+dcPm4h6yERARAiiqz9z5u0bbVsJ0v6gqQPJTIIgQ/wAT7S8lhbZrLJUnjzjCtPvJcVkogACBHVahixYRf98ZMlBV9y+WGSSokNQuADfICP9DzWVv/RR839pqVB9VePXXnKEtZNIgIgRNTlBjVO6DWgte9n5X6emwYlPsSCj4LjI8r3P4OPHuJj1RbJ/RcWBuNnXHP8C6ykRARAiGiDDW6cvEW5NfySyc6StHUqhljwAT7ARxbwsWpVySZZUL16xhUnPcjKSkQAhIjWaugFd36wZOHZMn1BUr/khkLwAT7AR8bxsfoPux60wC6fceXxd/JRvkQEQIio/bs7qvZdmcZKCpIdCsEH+AAfucLH6mPGozK/rHnjZyeosTFk9SUiAEJUsIZe/IcdygoucdfnJZWTHwrBB/gAH/nFx6rThj/poV2208t1v5k4cVyV1ZgIgBBRzqu/aNLWZnaRpDPl6p2OoRB8gA/wUQh8rN5jbt4488oT/8BLs4gACBHlsP3Pm9S/WrYvy3SRpAFdn2vAB/gAH+Cj9veDSbMstG81jT/hflZqIgBCRLnIbfhFd57s5ldI2qp7cwL4AB/gA3xEvu/uDUL/etP4kx5n3SYCIESU0RoumryfzK+T1ND9OQF8gA/wAT5i23cVN/1vXbCs8cEfnP4uqzgRACGijDSy8Y5NlrWVvivpLK36zeXgA3yAD/CRXnyser2vufsFM68++Ves6EQAhIhSnVvDRZNPlelyrXy5FfgAH+ADfGQLH6tMJv7nsBp8ddb4E//B+k4EQIgoZa34dKufSDqi53MC+AAf4AN8pOSx5mox+Q82bdv80ruu/eRyVnsiAEJEacDHJZM/Y+43StocfIAP8AE+coSPVXsq8OD/8WlZRACEiJKER+OfBwRtlStcOqM2cwL4AB/gA3ykEh+r/um1m7Vtdh7PhhABECKKueEX/vETHuiXknZK71ABPsAH+AAfNcPHqj0UWHBi01UnPMXZgCjbBdwFRFnIreGiP57vgf4GPsAH+AAfBcSHJO0XevhQ/TduOVty/gGVKMNxABOlvI9+8+6N+vVu/bnkY9M9VIAP8AE+wEdk+Fizu8NS2+dmXXHavzhLEAEQIqphQy+484Olkv9B8r3BB/gAH+ADfKzWaxb4CTOuPHkqZwuibMVLsIhSWsMlk0eWSuEM8AE+wAf4AB8dto2H+mvD13/1Nc4YRNmKZ0CI0oiPiyZ/QeY3atVvNAcf4AN8gA/w0eGVuHRDdfHSs+fcfGYbZxAiAEJEXaz+kklnm9v49R6f4AN8gA/wAT7WbFop8OOmX3nK65xJiAAIEXXuhGoNl0y+VK7z0z9UgA/wAT7AR6rwsbJ/VAM/avaVpzzBOYUIgBDReho7dkLp5d373CTpdPABPsAH+AAfPbq978p0XPNVJ/+VswtROuNN6ERJ19gYvLR7n1vAB/gAH+ADfNTk9vZ31+T6c395FCcYIgBCRGufUK2+db/rTToefIAP8AE+wEdtbq9JvWXBbcPO/fWpnGeI0leJu4AouRouHnK5mc4GH+ADfIAP8FHz2xuY6ajtGo5d8MqMO2ZyxiECIESFr/6iSd820yXgA3yAD/ABPiK7vWamw7dvOG7xKzNub+LMQwRAiArb8Ev+eKZkV4EP8AE+wAf4iPz2mkxjth9+7JJXmu6YzhmIKPn4FCyimGu4cNL+Cuw+Sb3AB/gAH+ADfMR0e13u8i/OHH/KTzkTEQEQosJ0wPmTd6yUfZakrcAH+AAf4AN8xIaPlf9P1VzjZlxzyu2ckYiSi0/BIoqp4edO6Fst+23gA3yAD/ABPhLBhySV3PTrYefeciBnJSIAQpT7fKM+N7s0BHyAD/ABPsBHIvhYWV+TTxp67i8GcWYiSiZegkUUQ8Mv/uPxLv0WfIAP8AE+wEei+Fi1fyosD2n+4Qn/5ixFBECIcoaPydu5/DFJm4EP8AE+wAf4SAU+Vv7Y9CUD+4ya2ziulbMVUXzxEiyiKGtsDCT/FfgAH+ADfICPdOFDkkwa0X/hsss4WREBEKLcVF/52FddOgh8gA/wAT7AR7rwscpFzq0/91ef5YxFFF+8BIsoKnxcNGlrs+BpyQeCD/ABPsAH+EgfPlZpSbWqhtn/e8oTnL2Ioo9nQIiiOrjMrgAf4AN8gA/wkXp8SNJGpZJuHXzGTf04exEBEKJM1nDhpP1dOgl8gA/wAT7AR+rxsbI9yv36/g9nMCIAQpTB3BTYtVrzJY7gA3wUCh8OPsBHlvDRnulrQ8/+xcc5jxFFG+8BIapx9Rf/8TiTbgUf6/3JJS49Y9ICmRYq9CUKbJlc/SXfyELbyE07Sr6LpDL4yCI+BD7AR7bw8X7/6Lu8zz5Trx+3mDMaUTSVuQuIalhjY2Bt9p3VTorgY7mbN5tsikKbFpb09Kz/Ofrlzlzz4DNuqrNNPvDBUqmytyv4uLkfJGlP9egfT8AH+AAf4GO9fbCld8vlks7ipEYUTTwDQlTDhl88aazLJoAPtcr8T+b2q9be5XvmNB65tFZbrL9o0tYehmNN4UmS1YMP8AE+wEckGwjs481XnTKNMxsRACFKdfUXT3rYZPsWFx/+iiy4ynq1/rKpcdxbUd/fQ86btEc5qHzFZadL6gs+wAf4AB81vM1zmgfOH6bGxpCzGxEAIUopPiYfYPK/FxQfL0j+/U0X9/nVXdd+cnns9/1Fk7a2auXrbjpLso3AB/gAH+CjNrfZP988/nM/5wxHBECIUlnDJZN/J/fPFgwfbZLdsLSt70WPXXnokqT3wfCLJ2wXVusulfxk8AE+wAf46Plt9n+rUt69+dqTFnGWIwIgRKlqaOOfPlBqq74oV68C4eN+8+ALTZcd9Vza9kf9hbd+Uh7cLPl24AN8gA/w0cPbfFnz+FMv5ExHVLv4HhCiGlRqC08oED5Cl31vh+faDk4jPiSp+dLP/LmXVT7m0l/AB/gAH+Cjh7f5nP3P++m2nOmIahcfw0tUk3OYf7Yg+HjLTONmfP/ovzWnfJf8/dJxb0j+yYYLbrvIZf+lzjzjCz7AB/gAH2vXp9pW901JX+dkR1SbeAkWUQ8bcckdu4Zh6dnOHU/ZxYdJr4UWHNb8/aMey9o+arjg9hNd/nNJdeADfIAP8NGN615aKtku06885XXOekQ9j5dgEfWwsBocl3d8uOvpUlhuyCI+JGnGZcf+xjw4StJS8AE+wAf46Eb9qm1+Lmc8IgBClIpMdmie8SHpJYXh6GmXH/lSlvfTjMuPuUvmYyW1gQ/wAT7AR5cvZjrrgC/9ZlPOekQAhCjRBjdO7uem/XOLD9ObpuqhzT847p952F/Nl37mz+76nKQQfIAP8AE+unix/m19qp/nzEcEQIgSrVerHSipdy7xIbUF7p9uuvQzT+Vpn828/Ljfyv274AN8gA/w0eWLuZ8pOe+fJQIgRMnlqg5PZqiI43s+/ILplx7blMf91tz3if+W7B7wAT7AB/jo4sV2G/q1Xx7E2Y8IgBAlmA2Ld6iIclOrXdGfZ1x6zPjc7rbGxrBU1cmSXgUf4AN8gI+uXKxUsjM59xEBEKIkGxLvUBH9Mx8uveMWfF4yz/OOm37lsa9L9mXwAT7AB/jo0uHqfvSIb/5qK05/RACEKPYGN07eQtKW2R4qOrgit4ubv3/Uv4uwD5svP3aSmd8JPsAH+AAfnbuYS1JdpVo9lrMgEQAhir1ebdXdc4cPac6Oz7feVKT9WJWdLXkL+AAf4AN8dPYHzIOxnAWJAAhR7LlKu+QMHzKziydOHFct0n6cddlx/5Dpx+ADfIAP8NH5H/BP1J/94605ExIBEKK42zxP+JA0p+n7R99dyD0Z2hWSWsEH+AAf4KOTP1DyoHwMp0EiAEIUbx5uliN8SPLvF3VXrviixV+CD/ABPsBHZ38gkH2KEyERACGKGSArnwHJAz706g7PVSYVeXeGYXg9+AAf4AN8dPYH3PWJwWfcVMfJkAiAEMWXaZOc4EOSfl20936s2awrxj0i6XHwAT7AR1bw4YnhY0X9Sxv1auBkSARAiDJcYviQhfZr7n/JTbeAD/ABPrKAjyh/1c7f5sB1MCsnEQAhivMcFu2blmPCh2RPNV1+9OPsUUmV8FbwAT7AR9rxkfgzH+//tNvHWTiJAAhRbJl8WfbxIUk+hb3Z3swrx82XNB98gA/wkWZ8RHXRbly3aYgaG5mliAAIUVwAsQXZx4dkDkDWaEpN7l/wAT7AR77x0V7/+gU7fphlkwiAEMWSS9UeX0PC+JAkq+h+9uaq95zf3+P7F3yAD/BRBHy0X7pcGsrKSQRAiLLBlxTgw01vTr/y2NfZH6vdKfPAB/gAH+Cjs1noe7NwEgEQolgy99q9CzIJfLQP20+zJ1evTnVPr/uOBB/gA3yAjzWuxbQ7KycRACFKcSnChyS5A5A1evAHR70r+WvgA3yAD/DRmUzag5WTCIAQxUQJCzONj/Yz56vsyQ5HilfBB/gAH+Cjk+0ysnFKmXWTCIAQpY4rqcNH+///XfZNh70LPsAH+AAfnaxu+cKXtmbZJAIgROCjEz9pbovZPx3eMe+CD/ABPsBHZzdcCcNtWTiJAAhRHENqJ85m6cWHJFngS9mRHRTaEvABPsAH+OjshkuybVg4iQAIUfR50PUJNUX4kKQw9D7syI5kFvYFH+ADfICPTl+vqT8LJxEAIUpaJ6nHhySZBRuzrzq4X2T9wYeDD/ABPjp5vaGLf8whAiBEMQyp63wJVjbwIUnmDkA6vu/6g4+orgZ8gI984WMFQfqychIBEKLICzv8IsLs4KP9h4xPbum4LcEH+AAf4KPz12sAhAiAECVR1vAhuUK+wXeNRjb+vI+kHcEH+AAf4KOz12sAhAiAEMWR2apvQs8ePlb8B9/gu0bLWzbaTVIJfIAP8AE+On297lFtmAiAEFFHJ5zM4kOSth18/oSB7MxV76LgI+ADfIAP8NF5fEhuzncqEQEQovjG1QzjQ5KsTnUj2I/vF8oPAB/gA3yAj87io32Y4ktdiQAIUQyZdXBmyhY+VvyJH8TeXGVRdB8FPsAH+AAfXfoyUreFrJ5EAIQo8tb6FKwM4qNdUhrF3myv/qLfbu2yQeADfIAP8NGVv66a/sUKSgRAiOItq/hob7+GC+7YmZ0oqVI+SpKBD/ABPsBHV/667GGFBZQIgBBF38ovIsw2PiTJQg9PYIdKkp0MPsAH+AAfsW+WCIAQUfzzQGL4aB+7zU4t+q4c8Y3bdpK0P/gAH+ADfIAPIgBClMrMgyinudjwsaLdh55/28eLvD+rpfBMdenlV+ADfIAP8EFEAIQoc6UCH+2LQRBcVNS9sOK7UL4EPsAH+AAf4IMIgBClN+vpN9+mBx/tF/NDh15w29Ai7spyqLMlbQI+wAf4AB/ggwiAEKXZH1GebePFx8rfSfa9ou3HYRfevrnMzgYf4AN8gA/wQQRAiHKYpxYf7QDRYcMuuO2YQu2SavUySZuBD/ABPsAH+CACIESpLrQg0lNU3Ph4HyH2w5GNEzYuwj4cesFtQ036PPgAH+ADfIAPIgBClPq69hKsdD/zsUY7tCwvX5b3/Te4cXK/Ulj92YbXQfABPsAH+CAiAEKUqbz2Px0dPlZcrZ817IJbj8/zXim3LLvWZXuBD/ABPsBHzzaLWogACFFcdepTsDKIjxXXa7IbRnzrjl3zuOvqz5twsnxDL70CH+ADfIAP8EEEQIjS5I8wqOkZLU34WNHAain8S/1Fk7bO035r/8JFuxl8gA/wAT7ABxEAIcpRmcfHyj5kYWVyXt6UPuSbt+8VePgHSX3AB/gAH+ADfBABEKJMFQbreglWbvCx8m+GLmsp/yHrCBl6/q2DSkH1bkmbgg/wAT7AB/ggAiBEOSlf+HjvJ8wPbllemjLim7dvlcW90vDNW+sD96mStgUf4AN8gA/wQQRAiLJZuOaZKJ/4WOVHh1TL/vf6b926W6bwcd7EYz3w+yRtAT7AB/hICz5c4IMIgBBRF7PVPgUr5/h4v90V2JwsfETvyMYp5YbzJja6NFFSP/ABPsBHmvChZG4z+CACIESZzoNuTZgZxsfKi/U3t9/Wn3/bjfufN6l/GnfNsAt/v3vL0jcfdOk761/nwAf4AB/gA3wQARCibCmkaPhYtTMrVnl62Pm3n5KWvTH83Al9G86b2GjV0qOShiU6wIIP8AE+wAcRdViZu4Coe5m5d+XUlDN8rGwbk/+y/vyJp1oQ/OeMS497MIl9MfiMm+pKm2x+Qig1Sr5z4gMs+AAf4AN8EBEAIap1obubFRofq/yAHeShH1R//q1T5cH3m39wzL2SRX72Hn7uhL7VuuBUk58n+S6pGGDBB/gAH+CDiAAIUZLlHx+rNVIWjqw/77aXXbf9ViX72cxLj32mpr9KY2NQ37LnCLmNDaUTTb55agZY8AE+wAf4ICIAQhRV7Z+CZeCjwztHO5j8fIV+fv35tz4ls/sUakqlrAfnfP+417pyM8aOnVD654eC3aqhf8LcRmmpj5K0VWz3A/gAH+ADfBARACFKRR74+l5lVFh8rN2H5f5hmb5crkr159+6ULKnJX/GpddNWuymxYFrscwHuDTQXRubtJ2kPV6UPmSh97Ye3U/gA3yAD/ABPogACFGebQI+1tdAyYdJGrby+SNzyeXvXfWqzytZaocK8AE+wAf4IKLuxMfwEoGPOPGRk6ECfIAP8AE+iAiAEMXc6t+EDj7AB/gAH+ADfBARACGKVCCrAwR8gA/wAT7AB+sEEQEQolgCH+ADfIAP8ME6QUSdizehE3Wz0APv9EkMfIAP8AE+wEftNuwp23dE1KV4BoSom3X0HhDwAT7AB/gAHym9j8EHEQAhKkTgA3yAD/ABPmq3YU/xOkFEAIQo6kLfwDMg4AN8gA/wAT5qiw+lcJ3AH0RdjveAEEV6DgUf4CMOfKTkpTDgA3yADyLqRDwDQtTdLHDwAT7AB/gAH+CDiAAIUTz+6OglWOADfIAP8AE+wAcRARCiWAIf4AN8gA/wAT6ICIAQRZatchoCH+ADfIAP8AE+iAiAEEXqj3DFS7DAB/gAH+ADfIAPIgIgRLEEPsAH+AAf4AN8EBEAIYqj0IOoplfwAT7AB/gAH+CDCIAQ0RqZO/gAH+ADfIAP8FHhjEgEQIiyHfgAH+ADfICPrOCDJ0iIAAhRbHX4PSDgA3yAD/ABPsAHEa23MncBUVoCH+ADfICPPK0R4IOIOo5nQIi6mVktnwEBH+ADfIAP8AE+iAAIEa33DBRENX2CD/ABPsAH+AAfRACEiBgswAf4AB/gA3wQEQAhSqiwxy/BAh/gA3yAD/ABPogACBF1sp69BwR8gA/wAT7AB/ggAiBEFEvgA3yAD/ABPsAHEQAhoi6fv7rzJnTwAT7AB/gAH+CDCIAQUTxiAR/gA3yAD/CRS3xUOMURARCi6Ovae0DAB/gAH+ADfOQTHzxPQgRAiGIqdI/2SXzwAT7AB/hI7RoBPsAHEQAhSmngA3yAD/CRpzUiys2CDyIAQkTrz4JopnXwAT7AB/hI7RrBMx/ggwiAECXnj9BrfyYGH+ADfICPQq0R4IMIgBARgwX4AB/gA3yAD/BBBECI0pcFXrtpCnyAD/ABPsAH+CACIES03sKSM1iAD/CRI3w4+AAf4IMIgBBlJgYL8AE+Mo2PtF4v+AAfRACEiFYWBmHPpmLwAT7ARzoeazzzAT7ABxEAIcpODBbgA3xkHh9JHnPgA3wQARAi6nShd+/sBD7AB/gAH+ADfBABECLqah1/Chb4AB/gA3yAD/BBRACEKA2BD/ABPsAH+AAfRARAiLqbrfUxvOADfIAP8AE+wAcRARCiqABinXwJFvgAH+ADfIAP8EFEAIQolsAH+AAf4AN8gA8iAiBEtajqoYMP8AE+wAf4KDg+8AsRACGKq/W+BAt8gI8ubwh8gA/wAT6IilGZu4CoezVfNvYeScY9QUWv/uu/vlvSGPABPsAHEXUmngEhIqIUBD7AB/ggAiBERETgA3yAD/BBBECIiAh8gA/wkRZ8IBIiAEJEROADfIAP8EEEQIiIiMAH+AAfRARAiIgIfIAP8AE+iAAIERGBD/ABPsAHEQAhIiICH+ADfBARACEiIvABPsAH+CACIEREBD7AB/gAH0QEQIiICHyAD/ABPogACBERgQ/wAT7ABxEAISIiAh/gA3wQEQAhIiLwAT7AB/ggAiBERAQ+wAf4AB9EBECIiAh8gA/wAT6IAAgREYEP8AE+wAcRACEiIgIf4AN8EBEAISKifFsGfIAP8EEEQIiIiMAH+AAfRARAiIgIfIAP8AE+iLJSmbuAiIjAB/gAHxk4VJ4+YrLM94/n9rsUxnbw92S39Ja0XFKbpMWS3pXsZclflcJXZXpZslclf1p73POCGfIEIEREBD7AB/gAH538fcL+kjaN5cD02A7+WuyWfiv+d6sVV7ZP+xXaKtdr0lOHLvEn7UlZ+KjcmlXVTL2xfK6NmlphMQYgREQEPsBHzTbr0e5E8JG/AzNb+OhKG0k+RKENkXS6Aklb917i8w5tkvnfVA3+pkH9HzKbWOVxAECIiAh8gA/wkVJ8eL4OzFzgw7vyVxtJGi230QpcenLR2z7v0L9Kdofq7M+2212LWLABCBERgQ/wAT7AB/ioBT46alNJ4yQfpzZf7vPG/E2u29QnvM12vXchCzgAoRV99Jt3b7RxryW7VMLyVqUg/EAo29LkW3qoXkFgA91VkvkASWW5+q84ChfJrGruy1xaKNebki2rzS0KM3gvJvRsa1iU+zjM2EMrzP7CEMZ3Re7aRQY+wAf4AB+Zx8ea9ZbskzJ9UstL1/mTh06W/BZ9eOCfeZkWAClEIxunlJdV3t7NvLRXGPpeJu0haRdJO0stW4UeKLBQ7tLKD3gwk9x93Qee+2rvzVrX0eldOu5TuNB3arCw+G9zjwaLCG+vR3G9FsHdGeVjzSJ6WMZ0fHjMxx34AB/gA3zkDx9rXkkfucZKGqsn33nR5x3yU9WVb7Td7nqDKRWA5KPGxmBodb+PlCvVBg+C4ZKGLGtd+BEp6OXuNRjlvPY/mWl8MFhEi48oriYFjzXw0c2rAx/gA3yAj6zhY81sJ0nfU1v1Yp93yATJfmB73vMEAywAyRw46pft8zGZHRIEGuWtVi+FA739KYxaCx58MFiAD/ABPlgjwAf4AB8930ZvyU6WdJLPPfQelXS5ffjuKQy2ACS17X/epG3Dkh3u0iFq9YMVaAtppTc8ooMIfDBYgA/wAT5YI8AH+AAfNd7vJvNDVdWhPnfMgwqDS2zvv0xl2gUgqaj+vNu2V7l8nLmOqJpGSV7q1AMdfDBYgA/wAT7AB/gAH+Aj5n3SrfPD/grCKT53zL3y4CLb6y+zmIABSOwN/dafPlDqVTnB3T9jsoZ2JXfhgQ4+GCzAB/gAH+ADfIAP8BHD8VTT88NoWXiwzz30VoX+Ddv7npeZigFItDU2Bg2VfQ9SaGdIlaPlqrMNvnUcfIAP8AE+wAf4AB/gA3zkAB8rM8nHKtCnfO6YK9Sv9TLbZeoyEQCpZQ0X3LGzBcHnvVWnSdq+R49e8MFgAT7AB/gAH+ADfICPrOJj1fpJ+o6W9jrR5x16ju15958ACPW4ERfdsa+bfd3djvcu36fgA3yAj9QOFeADfIAP8NGZHzWlOPCRjvODJOlD8vBOn3vIHQrDL9nef/s3AKEuV3/x5ANM4fmh64juPRDBB/gAH+ADfIAP8FGcdaIA+MjU8RT3fn/vgscoCA7wx0f/P9v73tsBCG24xsZgeNt+/xG6n2ce7lvTBzr4YLAoGj7Ser3gA3yAD/CReXwoGXx4Vo6nxPCxsi0V2G0+95CJUvD/bNDdbxVpnA4QRedruOQPoxvaPjbb3X9rEvgAH+Cj5lcDPsAH+AAf4KM2v07UNxJ81OiCY6XwUZ835pAizdQ8A9KJhl08aUgp1OUe6qD0HrDgg8EiQ/jIxVAR8UAIPsAH+AAf4CPv+FjZ9nK/2+cd8gN9ZJOLzSZWAUiBG3Hxn3Zyr1zkri+41eLZIvABPsAH+AAf4AN8gI+YcQA+0oyPlZlc52ve28P80TGftX3ueR2AFKzBZ9xUV7fFNl8PvfJdSb3TfcCCDwYL8AE+wAdrBPgAH13br+AjVfhY5WI2SiWf7U8cfJzt9bfcfos67wFZo2EX/uHAui22eVTyy8AH+AAfDBXgA3yAD9YJ8BHX/VJ0fLz3XztIwQP++JjT8zpv8wzIig644M5Nq0H1Mpe+KLlFejCBDwYL8AE+wAf4AB/gI1P4iPq7PsDHGvWR+U987ug9tOe955vl6psxeQZEkhounnRiJag+7dIZqunXCYEP8AE+wAf4AB/gA3yAD/DRzYu5fUvzDvmVzx3bK0+zd6GfAalv/PMAa63cIPcTYlngwAeDBfgAH+ADfIAP8AE+wEfXrvok6Z1t/dnDj7Hd7lqUhxm8sM+ADL948jBrbXtIAh/gA3wwVIAP8AE+wEca1wnwkXt8dH5gO0itbdP8qUO2BSCZzK3+oklnu4fTJO0KPsAH+GCoAB/gA3yAD/ARNz7iuGtzg4+V/7O3Kv6AP37Qrsp4hXoJVv1Fk7YObPKv3DUmtqMFfDBYgA+GCvABPsAH6wT46Pz9Bz7W94O7Kgju98cP+oTtfd/zWZ3JC/MMyLBL/niQyea6O/gAH+CDoQJ8gA/wAT7AB/jIGj5W/vF2smCKPzpmFwCS4houmvyFILS/SL45+AAf4IOhAnyAD/ABPrKHj5iAUyR8pHLe6fQP7qBSONXnHbQTAElZY8dOKDVc9MfLJP+xFNaBD/CReXw4+AAf4IM1AnyAD/BRkyvxmI9fr/kP7qgw+GsW35ieW4CMbJyw8cu79blD0vmxLnDgg8Ei4aECfIAP8AE+wAf4KB4+4jgUU4WPle2mik/xuSM/AEASrv68P2+/rK3PA5KOBB/gA3wwVIAP8AE+wAf4yDs+on7fRyrxsbLd5aW/+LOHDwAgCTXigj8OtXLlIbk+Bj7AB/hgqAAf4AN8gA/wAT5yjI8V2T5a3jbBp4zMxCfc5gogwy/84yfCQPdK2hJ8gA/wwVABPsAH+AAf4COl+Ej9vs8SPt67mkO1efl6ABIvPo5w012SBoAP8AE+GCrAB/gAH+ADfKQYH5n4uN1M4aM90xf98YO/BkBiqOGiP45z0x2S+oIP8AE+GCrAB/gAH+ADfICPxHZnUvh4Lxvvj40+CoBEWP2Fkz8j6TeSyuADfIAPhgrwAT7AB/gAH+AjsWM4cXysmO9Nv/a5h+wLQCLCh5n/DnxkGR8uBgvwAT7AB/gAH+AjZnxk6pgCH92YrzZWGP7RHx2zFQCpYQ0XTvo0+MgDPrK2CIIPhgrwAT7AB+tEDvDhWTmmwEcP5qsdZNVfujembt7PJEAaLpk8Umb/Bz7AB/hgqAAf4AN8gA/wAT7Axzr+0nSYHp92HgDpYcPOn7yPh36HpD7gA3yAD4YK8AE+wAf4AB/gI/34iOPuXsdfmv+XP3HI/gCkmw2/YNKHgpL/1aRNwAf4AB8MFeADfOR+jQAf4AN85AQfHv/+fr+yPPy9Pz1yCwDSVXw0/mWzMLA7xZcMgg/wwVABPsBHIfAh8AE+wAf46MTVdOr6t1dr+ZfuMgDSyQafcVOdlrdONGkP8AE+wAdDBfgAH+ADfIAP8AE+unr9/knNHX0OAOlkdVts8zM3HQQ+wAf4YKgAH+ADfIAP8JHkrws+somPlRfxy/yJUfsAkA00/KLJ35J0EvgAH1267h59vQj4YKgAH+ADfLBO5EAb4CPH+Oh2veTBL3324DoAso4aLvnDaJd/H3yAj1Se9MAH+AAf4AN8sE6kBjXgIz37K4GP2+1a+6jPJucCkI7wccEdOysMfid5GXyAj05fN898MFSAD/ABPlgnwAf4iHXmyRQ+Vl7F9/yxMR8GIKs0snFKH5VKf5B8i9gWDPCRD3yk7iQCPsAH+AAf4AN8gA/wkboZq7escmNSn4qVSoC0tL57jdz3iW3BAB/gA3wwVIAP8AE+WCfARwJ3A/hIbsayT+jx0V8EIJKGXzxprMnPBB/gA3wwVIAP8AE+wEcm8FHJKz484rsXfCQ6Y7XPmlf4oyO3LzRARlxyx67u+gn4AB/gg6ECfIAP8AE+MoGPRJ4MKRg+Ujfz5AUfkqQBstKPCguQkY1TymEY/FrSAPABPsAHQwX4AB/gA3yAD/DR/W2Cj85fpR/ljx98RCEBsnz5woskNYAP8AE+GCrAB/gAH+ADfIAP8BELPlb8j1/jzx7eu1AAabho8n5udgn4AB/gg6ECfIAP8AE+wEdSv67Hf/eCj+Tx0d6uWrrsa4UByPBzJ/SV/NeS6rKxYIAP8AE+wAf4AB/gA3yAj/Tsf/DRQ3y0Z/Ztn3fgNoUAiPft9R3JPwI+wAf4YKiI9/aCD/ABPlgnwEd8vxj4SDU+2uuvSq/G3AOk/qJJH5Xs6+ADfIAPhopEz/TgA3yAD9YJ8BHhNsFHBvCx8u9P97kH75lbgIwdO6FkZj9TTV96BT7AB/hgqOjidYMP8AE+WCeygI9MHVfgI5v4kCSVVPH/yi1AXvpQn3PlPhh8pGioAB/gI/dDBfgAH+CDdQJ85Acfcdy0QuGjPdOx/sSo/XMHkPrzbtvezL8DPlI4wIIP8MFQAT7AB/hgnQAfmcCHR3yxjOKjFtsI9d+5A4iVy1dJ2hh8pGSA5ZkP8MFQAT7AB/hgnQAf4CMf+PBabMNG+uOjR+YGIMMu/MOBksaCj5QMFeADfDBUgA/wAT5YJ8AH+AAfaxaGkT0LEitARjZOKQey6yQZ+CjqUAE+GCrAB/gAH6wT4AN8gI9U40OSTPtH9SxIrABZ1rbwyzLtDT7AB/hgqAAf4AN8sE6AD/CRLnzEcXdnBB/vXVXYmGmADD5/wkC5fRt8gA/wwVABPsBH0fDhAh/gA3ykHx+e7L5IGz7a+4Q/ftCIzAKkV7nPBZK2AB/gA3wwVIAP8FE0fLBOgA/wURB8eK7wseJq7bxMAmT4xZO3c/evgQ/wAT4YKsAH+AAfrBP5WyfawAf4yCc+2q/70/7IqEGZA4h79b8l9QMf4AN8MFSAD/ABPlgn8rVOpPHpE/ABPmqaSfpGpgBSf8nk3SQ7CXyAD/DBUAE+wAf4YJ0AH+CjOPiIYxfHsHF3yXSiP3TItpkBiKrhdyWVwQf4AB8MFeCDdQJ8sE6AD/CRjvs2ox+3mwQ+2uulcuX/ZQIg9Rf+YU8z/Qf4AB/gg6ECfLBOgA/WCfABPiK9b/P+XR/J4WPlJv+fzx/ZJ/UAMbPvdG8b4AN8gA+GCvABPsAH6wT4AB/gIxX4aG9LLbJxqQbIiIvu3EvSZ8AH+AAfDBXgg3UCfLBOgI902gR8gI9O4mNlZ6caIKFXL+j69YMP8AE+GCrAB/gAH6wT4CP58y/4SB8+4ng4bXCD+/mjIxtSCZChF/9hB5nGZW3BAB/d3TD4YKgAH+ADfLBOgI9C4yOJbRQOHxHvD+/k9Zt9MZUAKbt9Q1Id+GCoAB8MFeCDdQJ8sE6AjwLgw2O+b8FHMvhovymf9YdHbpIqgAxvnLCZS6eDD4YK8MFQAT5YJ8AH6wT4AB/gI0f4aK+fuv0ptxEBxJf3/rKkjcEHQwX4YKgAH6wT4IN1AnxkDR9x3E3gI8P4aK+HL8OqKUAGNU7oZaYv5wofDj7AB0MF+AAf4AN8gI80FMZwk6N+0zn4SA0+etZgf/Sg/VIBkAGtvT7j0ja5wgdDBfhgqAAfrBPgA3yAj/VdohRUlIvAR6Hw4T3dRnhyKgDisq+CD4YK8MFQAT5YJ8AH60RR8CFJ5TBhgGTi43bBR77wIUl2gk8ZWU4UIA0XTd5PUgP4YKgAHwwV4IN1AnywThTpZVceVpMDCPgAH4ngQ5K0lTYPDkkUIK7wbPDBUAE+GCrAB+sE+GCdKNp7Psy8DXwk+fuBjwTwsfL6TkoMIMMbJ2xmWt8XD4IPhgrwwVABPlgn8owPZ50oKD4kycul+J8Byfu3nOcdH0lswyPZxtH+1P79EwGIt/Y5UVIf8MFQAT4YKsAH60Qx8SHWiYLiQ5Iqy2wx+AAf3d9mZvEhSf3UWvfpZAAi/zz4YKgAHwwV4IN1AnywThQNH5LUp1KODyDgA3ykBx8rrt/Gxg6Q+gvuGGzSvuCDoQJ8MFSAD9YJ8ME6UTR8SPIHd3x5CfgAH4XER/tGDvMZhw+IFSAWBKeDD4YK8MFQAT5YJ8AH60QB8SFJS9TYGCoT5QEfcdwV4KOLv1Rv9Vt2RGwAGdk4pY9Lx4MPhgrwwVABPlgnwAfrRAHxIXctAh9x4sPTcz+Bj/f/M/TPxAaQ5W2LjjRpE/DBUAE+GCrAB+sE+GCdKBo+5JK5vwE+MoYPBx81/aXa//Mwnzty41gAErqfAD4YKsAHQwX4YJ0AH6wTRcSH5HLz18EH+Cg4PiSpr9psTOQAGdl4xyYmOxx8MFSAD4YK8ME6AT5YJ4qID0kysxQ/AwI+wEcs+Fj5B0dGDpBlrfYZSb3BB0MF+GCoAB+sE+CDdaKI+Gif+dIKEPARy0MXfKzap3zC2FKkAJHsBPDBUAE+GCrAB+sE+GCdKCo+JMncX4tvqjXLPD5Sc/xF/TgpHD4kaUvttqA+MoAMvui2bST/BPhgqAAfDBXgg3UCfLBOFBUfK3o5Nn+4lZJ7DNTo/s37d30UFx8rjBx26mVY3QJI2UrHrHZZBx/gA3wwVIAP1gnwwTpROHwoLNmLsQHEvAw+wEdq8dFep74PpFsAsVDHJDlUgA/wAT7AB/gAH+CDdSJpfLTPROFLiq8y+AAfKcaHJO3lj398h5oD5IAL7txUpk+AD4YK8MFQAT5YJ8AH60SR8SFT685vbPlqbPywdQEEfKQHH3G4ILX4aK9qo2sOkGpQOVJSHfgAH+CDoQJ8sE6AD9aJwuKj/a+fnzhxXDW+wVO9kpl+wUfnrzLi/eFZePP/hr8PpMsACaVjwAf4AB8MFeCDdQJ8sE4UGh/tP/iU4m2THv3uHvP9Cz6yj4/ubXK0e2NQM4AMP3dCX3ONieFRAj7AB/hgqAAf4AN8sE6kGB+SSU/HDJBNwQf4SDk+JGkLPTx1v5oBxPvWjZTUD3yAD/DBUJHNoYJ1AnyAD9aJ2uCjfSa02J4B8WcP7y2pT3x3FfgAHz2otP6XYXXtJVhuh4MP8AE+GCrAB+sE+GCdKDo+2scifzQugKjVNo3+cQA+UoePeHhb+1/JfWTtACIdHteCAT7AB/hgqAAf4AN8sE6kFR8ytS59Y8t5sc2I5com4KOA+Ij82Q+P6Ffy/X3u2F49BsiwC2/fXdKHwAf4AB8MFeCDdQJ8sE4UGh/tF5k7d+K41tgAEpa2Bh/gIxv4kCTrp8ob+/UYIGalw+NYMMAH+AAfDBXgA3yAD9aJVOOj/cIPK87C6vbgA3xkAx8rrzP8RI8BIvfDo14wwAf4AB8MFeADfIAP1on040OSgpmxAsRs+0R3LfgAH12e9axnABnUOKGXSQeAD/ABPhgqwAfrBPhgnQAfklXt7/EO+uH20d1VHvHFMoqPJLbhMQsyypnMdIBPGVnuNkAGtvRukLQR+AAf4IOhAnywToAP1omi40PS283b/CveLyE02w58xPy49jziw+PBR3v9tVn1o90GiAfr/ygt8AE+wAdDBfgAH+CDdaIg+JCk6WpsDBVvO4AP8JEhfLQX2vDuA0R2EPgAH+CDoQJ8gA/wwToBPiSTT1X8bQ8+wEem8CFJZg3dAsjIxil9JK8HH+ADfDBUgA/wAT5YJ4qOD0nyUumvccrDXx7eV9JW2cFHHIcE+Eg9Ptr/qnsAWbZs4QGS+oAP8AE+GCrAB/gAH6wTRceHpNdnXnvmY7EO4u8O+MhaM1uq8RHzpziBj7TiQ5I+5I8fvHWXAWKBfRx8gA/wwVABPsAH+GCdAB+STPdKFvdzAYMKhw8HH+nHRyfvz7AyrMsAkYf7gw/wAT4YKsAH+AAfrBOFx4ckk01W3LnvCT7AR/rw4Z3743Dtl2GtFyBjx04ouWwY+MjjUAE+GCrAB+sE+GCdAB9dbLmCtj/HDhDTXuADfGQSH+2/8+AuAeTl3fruI2lj8MFQAT4YKsAH6wT4YJ0oOD5k8vuar/3aIsXfoGLjI46HNfiIbEeZdQ0grupw8MFQAT4YKsAH6wT4YJ0oOj7az3P2h7jl4bOP7CfXTumd6DP6cbvgo/Y7at1/tYU//vEdOg0Qc40AHwwV4IOhAnywToAP1onC48O81YPwtrgBot7L9lQnv7etZvdx3r/rA3zEiY/2KqX9Og0QSfuDD4YK8MFQAT5YJ4qDD2edAB/reAzbXTOv+8qC2AFiNgh8gI9M46P9hz7WKYCM+ObtW0mrPuUHPhgqwAdDBfhgncgzPmIaEFgnsoePdoD8RklkGgw+wEe28SHJvXPPgHh51adKwAdDBfhgqAAfrBN5xwfrBPhY5+19s19L3/g/fre9YeAja//gkAA+kthGVzZv6iRATEPAB0MF+GCoAB+sE/nHBy+7Ah/rv71u/uOpvzhtWdzy8GcP7y1pX/ARxTGfM3wk8y3nXWk7bz548w0CROb7gQ+GCvDBUAE+WCfyjw+xToCP9d3eaqlaullJVPH9JPUGH+Aj4/hor65t0IYB0sGXhoAP8AE+GCrAB+sE+GCdKBA+5G5/mHHjl15IBCDu9eADfOQCH5Jkttd6ATLswts3l7Qj+GCoAB8MFeCDdQJ8sE4UFR+SVCpVf6Skcv8E+AAfucBHe+t/BsTcBtfsIclQAT7AB0MF6wT4AB+sExnEh6S5M370lfuTsUdjIOlA8JEBfMTziMg6PiRp/c+ABIHvAz4YKsAHQwX4YJ0AH6wTBcaHJF0rWTLT67xp+0jaHHxkAB+RP/uRC3xI8r3XCxC57Q0+wAf4YKgAH6wT4IN1oqj4cOnVUu/lv1JSeTASfICPHOFDkjb1h/bfdp0A8VWeIgEf4AN8MFSAD9YJ8ME6USR8SFLg9t2m8V9vSQwgplHgA3zkCB/tlUof7hAgY8dOKEn6MPgAH+CDoQJ8sE6AD9aJIuJD0vzFb27xi6TsseL7P0bF/zAFH+AjQny0/3936xAgr+7R+0OS+oIP8AE+GCrAB+sE+GCdKCA+JLdL5k4c15oUQNRaPUjSxvGsbRnHRxLb8JjfFpQXfLTXMUAqlXAv8AE+wAdDBfhgnQAfrBOFxIf0xMytX/+9kszsU+CjO9vMCz48r/iQQu3eIUBsjfd/gA/wAT4YKsAH6wT4YJ0oCD4UuF2sxsYwUYC4fxJ8gI/c4aMd1x0DRKY9wQf4AB8MFeCDdQJ8sE4UDR+S7p9xw5f/mKg95h46SNIu4AN85A4f7X//QZ8ystzRp2DtAT7AB/hgqAAfrBPgg3WiUPgwbw2kLynxfGw8+Ijj7gUf4GOt6jRAO68BEDdJu4IP8AE+GCrAB+sE+GCdKAw+2kegS2dcf9aTyQNE4+LBR8yf4gQ+wMf72N9tNYAMv/jObX2tT11gqAAf4IOhAnyAD/DBOpFjfEjP9Fva77Kk5eGPH/ZRyT+SGXw4+Eg/PuI4pLu4Rpp2WQ0gXq3sxlABPsAHQwX4AB/gg3WiQPhwhcGXpv7itGVJA0RB9T/AB/iI5VhICh+SpHCn8hp/vjtDBfgAHwwV6R0qWCfAB/hgnaj57f35zBu/dJ/S0VjwAT7yjQ9Jbqs/AyLz3cAH+AAfDBXgA3yAD9aJQuDD/KXS8t7fSoM8/IlD9teKL2nLJj7i2KXgIz07qkdr5BpvQjfbDXyAD/DBUAE+wAf4YJ0owDMfbZI+2/TTL7yVBoDIdHrq1s8uXY1HfLPBR012VNxrQ8c/ujpAzLUr+AAf4IOhAnyAD/DBOpFzfEjS+TOv+0pTGuzhT326v6Rx0fzK4AN8xHc3dnJ7WwZr/NyO4AN8gA+GCvABPsAH60TO8fGnmdd/+Rqlpeqy4yVtBD7AR/rx4TX5sfcAcsAFd24qaQD4AB/gg6ECfIAP8ME6kWN8vCzzUyWL+9+D1/d7fB58gI+i4EOS3vsUrOVB206Bgw/wAT4YKsAH+AAfrBO5xUdLGAafmX3jlxakhh7zDt1PHtaDDyXwEqGY8ZHENlKID2mVZ0CCqu8EPsAH+GCoAB/gA3ywTuQUH6FLJ82+8Uszlaa8+nXwEfdxnxA+8v4t513Y3nsAsUA7gQ/wAT4YKsAH+AAfrBM5xIfM/Ruzrj/r9lTZ46lDtpVsbO1+ZfABPtKPj9UAEoa2E/gAH+CDoQJ8gA/wwTqRN3xIuqn5hq9co7RVta9K6gU+wEeR8LEaQMy0E/gAH+CDoQJ8gA/wwTrR7atLIz5cf9rpjS3PSps9fPaR/ST/IvgAH0XDx2oAkcLtGSrAB/hgqAAf4AN8sE50/+rShQ93m1qtlsdNnDiumjaAqG/L5yVtDj5iwkc8rAQfXQeIbctQAT7AB0MF+AAf4IN1Ig/4UKgHNjI/cs7NZy5N3Zg6f2Qfyc4HHzHiI/JnP8BHV7axAiBukrZmqAAf4IOhAnyAD/DBOpF5fLjuX7bx0k9Ovf6sxUpjLeX/J2l78AE+iogPSTJJGnbh7Zub602GCvABPhgqwAf4AB+sExnHxz2lPsuPbhr/9ZY02sMfHbORyv68OvqHX/ABPgqAD2nFS7A8DD/AUAE+wAdDBfgAH+CDdSLj+PhTv5Z+R6UVH5KkOj8LfICPIuPjPYCUzLZhqMjKUAE+GCrAB+sE+GCdAB9rX8x+Uq2Wj5n6i9OWpdUe/tSn+8v1rcLhI4lteMxvagcfXbpwuf2Y1TY9/0UYKtIyVIAPhgrwwToBPlgnCoQPl/S9mTd8uVFpr9JyiUxbFA4fnkd8OPjowYXbAaJgG+vRtTNUgA/wAT5YJ8AH+AAfsd/eZRb6ac03fuX3abeHP37QrjKdDT7AR9Hx8R5AzLUVQwX4AB/gA3yAD/DBOpEhfLwWmB8z48avNCsLlYJr5Ood5ywOPsBHGvHxPkDkW3h8CwZDBfhgqAAfrBPgg3UCfPTkeqdUK+UTZ9585mtZsIfPGz1abkck9vgDH+AjVvlueBsrv4hwc4YK8AE+wAf4AB/gg3Ui5fgIZX75Tm9secicrOBj9uA6uf1vuh5/4CN9+IhjN3kM2+zcBVe8B6SrAGGoAB/gA3ywToAP8AE+Yr29r5t0cvN1X7lnpjJU382+JekjiT3+HHxkAx9eGHxI7z8DshlDBfgAH+ADfIAP8ME6kVJ8TLK6to82X3/WPVmyhz8++iOSvg0+wAf4WL3yiv/dgqECfIAP8AE+wEd28OER/jj4SNG+e9vcLmi+4cs3K2P5lJFlBfZLSX3AB/gAH6sXqLExkLQJQwX4AB/gA3yAj2zgI8rdAT7Ss77bnXVBuFcW8SFJ2qruPElD04WPOHYr+EjPjkonPiSpfMCyIQPb1FpiqAAf4AN8gA/wkX588MxHAfDxT5fOnnXDl29XRvPHxnxY8m8rFcdiHOcW8FHTHZWZN7l3/7wfVFXdnKECfIAP8AE+wAf4AB8J77sWk/5rWb+lH551/VnZxcezh/dWyX+tLr30CnyAj1pvM+rv+ujZeb9cDds2sSBgqAAf4AN8gA/wAT6ivM1p/Rz/NODD7U6Vql9r/tFX5yvrtVbHSxoMPsAH+Fj3xcpWtv4KGSrAB/gAH+ADfIAP8BH7vmty8wtmXX/WA8pBPm/MZ+X+JfABPsDH+i9WNld/Z6gAH+ADfIAP8AE+wEd8++4xuf33zBu+PFE5yecdspvcbyoWPuK4Y9Pxzd3go7bn/bKHwQCZM1SAD/ABPsAH+AAf4CPq2/uE3L4384Yv3arVh49s42P+yD5aqglyDSgWPiLehUngI+75LDP4qO3NKrv5xsZQAT7AB/gAH+ADfICPiG6vSffKfHzzdWfd1Q6PL+fFHnKXaV75J3LtCz7AR37x4TW9SFlmA9p3MkMF+AAf4AN8gA/wAT5qdHvNWyWb5K4rZl5/1qz2P/yKcte8Mf8l9xPBB/gAH52/SNkU9o/u9jBUgA/wAT5YJ8AH+CgYPua7+c/k9pNZ15/1L+U4nzfmdIV+MfgAH+Cjaxcpy61/NFfOUAE+wAf4YJ0AH+CjEPiwcOWzHbfs/MaWf544cVxVOc/nHnyYQr8RfGRuz4GPhPHRDhCpf+2vnKECfIAP8ME6AT7AR87x4ZIelPz/qm11v59z85lvStIs5T9/cvTeCu33K+Yo8FGzbUa9DfCRBnysBEhfhgrwAT7AB/gAH+ADfHQq0zy5T6yWyrfMufbM51Ww/KnD9lClerekgeADfICP7l2kbPI+tfvIaoYK8AE+wAfrBPgAHznDR8VczS5NVhDeMfO6rzyjguaPjfmwKtX7JG0DPsAH+OjuRVxll/eRjKECfIAP8AE+wAf4AB8re0bSfTK7p5+Hf516w1mLVfBWPPPxN/ABPsBHz7dRllufDfqDoQJ8gA/wAT7AB/jIMz6ekalJ7vdZqXpf87Vf+6fo/bu0CM98JLENj/lN7eAjgXN/xz9cdlNvY6gAH+ADfIAP8AE+ioKPf7n8cZnNlntTWCk3rXwDOXVwl849dJA8vE/SVrnGh+cRHw4+UogPaUNvQmeoAB/goyD48AgvyjoBPsBHIvgwtUp6TqHmSJrr5vPCSnn2nJvPfA1WdPIufeKQ/aXwDklbgg/wAT5qtzaXTda7e0MYQwX4AB/gg3UCfKRhjSgsPlolf8VlL5r0oqQXzP1Fd3uxWhe8+MF/bfpCEb6PI7Lxdd6Yzyr0n8vVJ76Ngg/wkX98SFJZ8j4MFeADfICPyPDhWibTm5LelLRE0lIze8fdl0hqdflimdpq9iuFaVsnpPc+6MNqeZ1hhFdjEdwHYbfusggv0PXbHEbwmOj4sViVfFH7f9o7FriHoS3xwN+S2YLAy2/ULQ3efPBnp7+7vi3MwRDdnY9N88Z8R6F/J/lzNvgAH4loN/IZriytIXvwAT7AB/jo/EUXyPWsm14y95dNeim00kuB+2uy8N99Wjd6c+r14wr/6TlElBF8PHt4b82r/kzuJ6RnWAQf6cFHHLvJY9hmsvhYCZAy+AAf4AN8bKB/yfSoux6R9KQF4dO+PHh25nWnLmBkIaJc4GPu6B3VWpkgV33sa7+Dj2zgw8FHjX64LKkEPsAH+AAf72cLZT7DpBnm4YxKWY/MuuK0fzGeEFFu8TFvzNFy/6lcm4EP8AE+op/hypIC8AE+wEeh8fG2pCmS/hbK7581cP6TamwMRUSUd3jMH9lHS+sul/vXEjlXJfoyIfABPpKb4cpyK63/AuADfICPnOEjlDTbzP5YrVbv2fnVjR7ik3KIqHD4eHz0R9QS/F7yj6YPH1F/yzn4SI8Si4ePdoDIA/ABPsBH7vHRJumv5rqjWhfeuepLqmYxhxBRkeDhjYHmPvglma6Qe99E1n7wkX18ZOZN7unDxwqArHgPCPgAH+Ajb/gIJT0ghb/zVruNN4wTUeHx8cSh+2je9BtkGt71JR18gI9abzPq7/pIJz7WAxDwAT7AR2bx4f6qm25RyW6aeeUp8xk5iKjw8Hh0zEaq82/Lw2+uNveAD/ABPhKZ4cpa69uQwAf4AB8ZxEco6a5A9qOmTf5xD28iJyJascw+MeZImV8n1w7dW9LzgI847mjwAT66BpAy+IgLH1EuYuCjoPhYJmmiguCy5qtOmseoQUS0Eh6H7iMLr5D8kO4v6XnBR8Q48BR/czf4SOUMBz5iw0eUdyf4KCA+3pZ0baDWHzaN/8JbjBpERCuW17mjd5R0sRSero5eZg4+so+PuF+dkhl8xDHm1OZVPOX2/3EDH1Hig2c+wEfN8LFApqvUFlzXfO1Jixg1iIhWLK1PHrazwuoFkk6T1KtnSzr4AB9ZxIdHfJHavYWgLHkoKQAf4AN8pBofS11+bauHlz0y/rR3GDWIiFbC4+DdFQYXKqyeKKmu50s6+AAf4CNKfEhS2aWqrfZSLPABPsBHivDhMv28Etolc6455TVGDSKiFYvj3NEHSPY1hTpW6/xKAfCR4T0MPvKEjzUqW82vFXyAD/BRI3w8E1rw5VlXn/Q3Rg0iIsmfHz1Qy+x4SV+WtHdtl3Tw0fltxvzt4OAj+/hY42rKav/4TvABPsBHevCx1MyveHdA3+/PbRzXyshBRIVGh8s095ARMn1ByzROUr/aL+ngA3yAj7h2aY0BAj7AB/joKT5MulNe/eqM8ae9wNhBRIWGx9xDB0k+VvP8BJl2i25JBx/gA3xEdoes4yrKkqrgA3yAj8TxscBcZ8y45pTbGTuIqJDgcJnmHjZEFh4l6WjJB0X/nQbgA3yAj7jxsQIgFvZsI+ADfICPnuDDpfutEpw049qT/skIQkSFQsfcQzeTa5TMx2iejpCF2/Z4bc47PpLYBvjINj6S2MYGjouVH8MLPsAH+IgfHxW5f2+nV/p+f+LEcVUREeUdHE+P3EKtvRoU6OOSDpL8Y7KOvgoAfHTuavOAjzjutoLjI8GP213XX5Ylr0hW+98GfIAP8LG+XnbZiTOvOeXvzcwkRJRHbDw6ZiPVhXvLS/tKqpd8uCraY8PfPAY+ioUPBx8Fw0c7QMyW1fx1YeADfICP9fWnut6lk6ddduLbjChElHloPPXp/vJlu0u+u0LbQ4HtqVD7SP4heRB0bb0FH+ADfOQTH6tXlqu1ptcOPsAH+FhfN/cduMNZUxtHVRhbiCjVsJgysqyt+m0hq2whC7aQh1tLto3kO8m1g0zbS9pR4bJt2i9h7S+oCLu7xnqsFwMf4AN8xIkPXwMg6gpAwAf4AB/dxEfV3M+dcc2p1zLW1Po8Obakf7Z8QG3B5gq1uQLbXO5bSDZQ0qbtP2QbKQh71XzjYcyPvzAt93oYw2Ef5uHRmfw+XHN75ibTJqvfTBso9zqZBkjqL1M/ufpLGvjeB2W+93ZRf88aqZgDUnG+Ah/gI2WPqZTjYyVAloMP8AE+IsXHYjc/vnn8qXfChW7ezc8ds5XK1UHyYCeF2lmmnSXfSdJOmt+6vbxU995Q5B1MR+aSW20fH0n8q6vFeKM86SHLor9DPeodFvVd5917zHT0Ea5Wg4G3CPhI/LgAH+kYAzgueoIPSSq7tMx6eu3gA3yAjw4z6SUP/ciZPzz1MRjRibt07the6rVsN5WCwfJgT5kPknywFG6j0NYelJI6tj3mx6DH/BjP+5BVFHwwZIGPQuLDwUfK8SFJZdvgS7DAB/gAH93Bh6QXw5JGzRx/6nxo0cFdOGVkWTsO2FcWDJepQa6hUtuuUqn9M3LMO7fvPObHB/gAH4kvQeADfIAP8JFdfEgbfA8I+AAf4KOb+HjBvDqq+crTXoAaq4Bjh4HDFNjBkg6SNExSvx4dG+ADfKQOH1F/oRr4SA8+lI/jAnxwXMSMD6n9JVjLDXyAD/BRc3zMuAZ8+AtH7qKwdITkh0r2cUn9a7bvwAf4AB/Fwkdqzt1Rn2PAR/oeU+CjlviQpLK5lq79mmrwAT7ARzfx8UwgP6jpmtNeKSQ4fGxJ/6gMl3SEAh2h0Ae1/43Vdt+Bj5iWjQwNiuAj//jI+3d9gI/a76jMvNyyWPiQpLJMS8AH+AAfNcHHc+W6ulEP/uD4VwsHj2ePHKSgfLLmt50s07aRDu3gI6YhK8Izt4MP8AE+wEdW8OHpPC4yjA9JKrt8ib33r5PgA3yAj27iY4Gbf6pI+PAXj9pTVX1OsnGSdur5fQ8+wAf4SGbJAx/gA3yAj/jwIUllMy3u1IAFPsAH+FhXywKzTzddfcozuUfH/M/1kS88UoGfoaoOVs0+FBd8gA/wkcyQBT7Sg484DgvwAT6Sx0c7QEJb4gY+wAf46CY+Qpmd1HT1ydNzDY9/fPqjsuAs6Z3jZepf229zBh/gA3ykHh9JbKNw+Ih4f3iO3tMFPjKND2nFS7DAB/gAH93Ch1z65syrT74tt/B4/pgDVPLz5fqUVj7b4TE/hsFHjCd28AE+QDn4KPJxEQc+4jhk040PSSpboMXrfFyCD/ABPtaTXT9z/Mnjc4eOZw/vrVLfk2V+juSDVrsrwEf28ZHYx+2CD/ABPsAH+OjWhXOGD0kqh7IlVtPhEHyAjyLgQzMXD+x9bq7gMfuMOm32xvEyfUcKPxjt3Q0+wAf4SG7I4rgAHxwX4CM5fEhSOXAtrt3xAD7ARyHwsaAUlMbNbRzXmi94vPGfknaNbp+BD/ABPjIzZIGP7OMjCaGCj2zjI8ZtlC0MF3lg4AN8gI9Of/W0nz79qhNfzPxpw2V64ejPSm/+j6Rdot1nce5e8AE+cjZkpf4cAj5SiQ/3fB8X4CPTx0U59ODtng/54AN8FAIfMvmlM8afOinz+Hj+uCGaH14j0/7v/+5x4CPqL1RLOT6S2EZi+IhJq0XARyY+bhd8gA/wkQw+lMnjolwphe+UZeADfICPDerDHtjh5T7/OSPL8Hj6yC3Uq/xtKTxLUin6fQY+un7xvOAjhgEIfIAP8AE+Co8Pz+RxUe7jvd+uqDW+OxZ8gI8s4kNaGrhOnzhxXDWT8PDGQC88+hVJ/y2pfzz7DHyAD/CRf3zEcdPAB/gAH3nChySZ5FZ/3q2tksrgA3yAj3X9uH115viTf5RJfLx09K6q2k8kjYxvn4EP8AE+ioGPqL9QLaP4iP24AB+Zx0cSs1yCKA8kc0nvgA/wAT7WlT04c+Dz12cOHlNGln3+0WerGjyaX3zE8XACH4XGRxLbAB/gI3X4iONuAx9FwYf0/rMe70jaAnyAD/CxVksD6XNqbAwzhY9/fHoPWekWSUM7/n3zgo+Y/8UPfBQPH3k/LsAH+OjqLwU+co6POHavK5Akc38bfIAP8NFRdlHT+JOfyxQ+XjjmWFmpuR0fDFnd3yb4SNeQBT7AB/gAH+Aj+rvCI9697X9QliQP7O3YbxD4AB+px4ce3fGfvX/UnBV4zP9cH2nh5XJ9jSELfDBkgY9s4iOOu5vjAnyAjyTx8R5ALLQ33Rx8gA/wsUqBdHZWPvXKnz9uN2nhBEn7MmSBD4Ys8JFdfKT8ZZXgI5/4SGIbBcbHihlLcvPXwQf4AB+rXe7/msafcn8m8PHC0YcrCGenHh9JbCOVb3IHH6keRsFH9vEByjOAjzgOe46LtOLjfYC43gAf4AN8vFdLqVQ6PxP4+MexX5DbJEkDUo+PvH/cLvio/QY94usHH+ADfCSEDwcfhcFHxwWSFAT2BvgAH+DjvS6bftWJL6YaHi7z+cc2yvzHkurAB/gAH2lbhsAH+AAf4AN8rGsbZUkKXW8Y+AAf4EOS/lVZ0nJlqvHxrzEb6YWNfy350cnsM/ABPrKOD0/2uAAfMeJD+TguwAfHRY7w8R5ASuavhw4+wEfh8SGZLp9z85lLU4uP+Udvoha7S/IG8AE+wAf4SN2QlZrzd9TnGfCRvscU+MgKPqQVL8EKw5UvwQIf7/8B+CgcPqTXAu9zU2rx8fzYgVLwF0kNyTwWwEfsd3OS+EhiG+Aj+/jI+3d9gI/a76jMvNwSfNQKH+8BZHlb6Q3wEceRAD5SjA+57PtN48e1pBIf84/eREHlHsnru3XfesyPY/AR05AV4XrlMWwDfIAP8AE+4pyvwEcq8PEeQB655ph3JC0BH+CjqPiQ+6sl9f5pavEhu0fSMPABPsBHGvERx0MBfIAP8AE+8oGP9wCyotfAB/goJD4kKaXPfviLn9pUsimShiZ/l4MP8AE+khmywEd68BHHYQE+wEfK8VGDbQSrXOwV8AE+iokPvdVS1i9Sh4/ZZ9Sp2mui1vsFg1HvN/ABPsBHZvCRxDYKh4+I94fn6D1d4CO/+KjBcfEeQAKvFUDAB/jIFD4k6frHrjxliVKUu0xbvP5TmQ4GHwXERyIPOvCReXwUFuXgo1jHRRz4iOOQLS4+pBUfwytJbrUACPgAH5nDR2vF7frUDYPzj/kvmU4GHwXFR2Iftws+wAf4AB/go1sXBh9dKljlOl6pya0CH+AjO/iQXL+dc83JrylF+QvHfF6mi8EH+AAfRR6yOC7AB8cF+MgnPlYHSI+eAQEf4COD+JDkgV2TKny8ePTBct2YPD7i2MXgA3wwZMV7HgEfqcNHEos1+Mg2PhKbv2q7jfffhB52FyDgA3xkEx+SmmZeffKjqTlFPHfMVgrtFkl1yeMj6u80SDk+ktgG+Mj2kJX68wj4SCU+3PN9XIAPjosNAaRU1UvgA3wUCB+S+09Sgw9vDBTot5K2AR8pwIfH/FhPDB+xPLqLgY9MfNwu+AAf4CMZfIjjYvWWvweQpoHzXnNpOfgAH4XAh7S43KsyMS0A0fzHLt7wJ16BD/BR6+3FMACBD/ABPsBH4fHhHBerZnrp/feANDaGps4+CwI+wEem8SHJf/fgD05/Nw328H8c+3GZfwd8gA/wAT4SOzWAD/ABPsBHXMeF+3PBGn/0AvgAHwXAhyy0n6YCH08fuYXMfyupBD7AB/gAH9FsL+ovVMsoPpLYBvjINj6S2EYeUe727BoAsRfAB/jIOz4kPTPjh6c0pwEgqitfI2m7fOMjFsqBjyLjI4ltgI/s48Njfkx5zIsp+EjwuAAf683WAIh7+AL4AB85x4dk+r9UjMz/OHqMTCfmHx9RP/sBPtI1ZCWwgbwfF+ADfHT1lwIfOcdHHLs3whtg/szqz4AE63oGBHyAj5zgQ1LonjhA/OWxfWXr+wZ28AE+GLI4LsAHxwX4AB8xHBtxvxeqWl7jJVhVzQcf4CPP+JB83qzxn5ubNEBUqTZK2pUhC3wwZIGP7OEjjrub4wJ8pGTuBB+13l6rXtz6pdUAUvXKs+ADfOQXH5Lcfp+0Pfz5o/aW/FyGLPDBkAU+somPBPY3xwX4KMJxkX98SObP27iJ1dUAMueqE96U9Bb4AB+5xIek0Pz2RPHhMgWlH6vDbztPwZCVxDZS+bGi4CPVwyj4yD4+QHkG8BHHYc9xUSh8yKVQz0irfBP6Kj0DPsBHHvFh0kuJv/xq/jGfkbw+tfjI+8ftgo/abzCzgw/4AB/go1s7CnzkEB9xPFxXfhCQP94xQMyfAR/gI2/4kCQ3n5ykPdzHlmT6LvgAH+Cjm3ci+AAf4AN8gI8ItucRP1xXuX4L5nYIEAv1LPgAH3nDR/tj2/6UJED0QuUUSR8BH+ADfIAP8BHvnA4+wAf4SAAfHV2/eccAkbe/Ngt8gI884UNSS9vSZfcnZQ+fO7aXpEvAB/gAH+Aj8SErFefwOM414CN9jynwUSh8rH1cVDRwk47fA1I1eyZ1D2TwAT56fnunzrn5zKVJAUR9q2dK+mDqBgfwEdNdnoc3g4OP3OAj79/1AT5qv6My814v8JFifEjS07bbXcs7BEi5oqclVcEH+KjpzUwWH5L7fUnZw189sp/ML9rg7fW47xPwEc+QFfVra8FHugwHPsAH+OjRFYGPHOBjnX/z3gcBrQWQpvHjWuQdfSEh+AAfGb7ekqYkBRAtL50q6QPgA3yAj6TxEfWQBT7AB/gAH+BjPdt4Yp0AkSTZ+z8APsBHj64u6Wc+2ntnx5f6PZIYQMy+HN/dDj7AB/gAH0XHRxyHRY5eVgk+8omPJLaxoZnP7aH1A0TdBQj4AB9xDUhdut77J04cV1UC+fPHjZZrr2j3HfhIbMhK4vrBR7bxkcQ2CoePRF7bznEBPtKFj6S+aHB9lUrrB4jJnojtQQA+wEfkt9f+rqQKwq+CjxzjI7H3KICPzOKjsM8Igg/wkbZ1FHzEig/pVRvy99fWC5CKh3Mj3JvgA3zEensDs6Yk7OH/OHYnSZ8CH0XDR9Qftws+wAf4AB/go1sXBh9J4UOS5qw2m3V4XYsWPi2pFXyAj6zjQ1KbvPfDSQBEgX9F8hL4AB/gI69DFscF+OC4AB8pmcHSjQ/JfMMAmXPzmW2SPQU+wEfG8SFJjzWNH9cS+6zx8ti+cv984oMP+AAf4CPZIQt8ZH/ISmKxBh/Zx0fuUd7ldfChDQKkvfAh8AE+Mo0PlxSqOZFzSVvbkZI2i/ZhEvUXqqUcH0lsA3xke8hK/bkEfKQSH+75Pi7AB8dF1PiQpHJpw8+ASJK5PQw+wEem8SHJZI8kAhDTSeAj4seix/x4TwwfcVQQfGTi43bBB/gAH8ngQxwXUeFDesn2e/DVTgHES/YQ+AAfWcbHCkjPVcz5y2M3k3Qo+AAftdleDAMQ+AAfDFngo/D4cI6LaPAhuR5c84/WCZC+ffWIpBB8gI+s4kOSSm3Bk7H/60db5ThJvcAH+AAf4COef/UAH+ADfICPlOJDksxmdBogUxvHLZb8meziw8FHwfEh6ZVpN5z4duwAMT8GfIAP8AE+Elr38oWPJLYBPrKNjyS2AT7WX1jt/DMgkmRa+Y71LOIjqh8HHxnBhyTF//KruWM3lnxU9vARy70DPoqMjyS2AT6yjw+P+THlMS+m4CPB4wJ8xIIPaYla+j7aJYCEstngA3xkFB+SfF7sM3bftk/KrU+uh6xubRN8pGvISmADmUQ5+AAfEf5S4CPn+Ihj96YeH5L5TBs1tdIlgMjXfs0W+AAf2cCHZIr/DeiSPgk+wEexhyzwAT44LsAH+IhuDssQPiQpDJo6+uP1AmTz5Rs/5NJy8BHTbXaBjxpeLEzgJViSDgYf4AN8gI90DFngA3yAD/CRID4kKahO7TJA7rr2k8tNegR8pGjoBh+dPvhbFcb6CVj+/FF7S9oefICPVA5ZAh/Fwodn8/EEPlK6m1K8RoGP9OJDalWvluldBsiKZqT7DuOZD/DR4Q8sfOSa096JeakfnduFPpUnTfDRpQ16zDsMfGQfHzwjmBF8eHrwkffjAnx0tRm2z2NLugcQ7wZAwEfX8JHGoTXb+JBJLyvuzEbFcr/k/eN2wUfG8BHHXQc+wAf4AB9Fx0ccD9cab9T8vnX91QYBUvJqE/gAH1nCR/t/+SuxHrcuk9QAPsBH8fAR9XcagA/wAT7AB/jI5MsqPZjSbYBMv+rEF016CXyAj6zgo13dwUuKsxeP+bCkLcEH+AAf4COf+FA+jou84yOJ6wcf2cdHNMfFUm06sLnbAGn/tf0B8AE+MoMPSQr9n7GeREMfAT7AR3omPPCR+SEriW0k+oVq4KMmOwqUg4/0HBd/t93uWt4jgJjsfvABPjKDj/ZHdszvAfF68JHi+SxpfHicvyz4yAU+8v5dH+AjpfhQeo8L8JG14+Ku9f1l5wBSCqaCD/CRGXy0F+t7QCT7GPjI8pAFPtKDjzgeCuADfICPHl0R+MgBPiI+JMLwzz0GSNNl457rcKADH+AjnfhQYPZGbPPQlJFlyfcCH+ADfGRhyAIf4AN8gI8U4SOJbXjk25hvDc3P9hggK27tA+ADfGQBH5JUbbV34gKIdhqwp2R9wAf4AB/gA3wkPLcliY8ktgE+so+P7H/XR0fH3p829COdBojJ7gMf4CML+JCkXtVSfABx26um9wv4iOnEDj7AR4oeU4XDR6Zf256j4wJ8gI8oNhL+pWYACcLqX8EH+MgCPiT5Nm/WLVJ87QE+UoyPxN6jAD4yi4/CPiMIPsBH2tZR8JE9fKhFpeqUmgFk+lUnvijX0+ADfKQcH5K0aOLEcdXYFkqzPWpyv4CPGPER9Xd9gI90DVkcF+CD4yIZfHjEFwEf6cHHe/3FhsxZWjOArDiu7wEf4CPl+JCkd2MeWfYAH+ADfGR8yAIf4IPjonj4SGIbucXHim2EfkdnfrpLAAnM/go+wEfK8SFJrTEDZLdkdzX4AB8MWeCj4PiIJfCRO3zkHuUx48PVpra6O2sOkFLQZ6rkbeADfKQYH5IU28uv/Okjt5C0Ubd/h7zjI4ltgI9sD1lJbAN8ZB8f7vk+LsAHx0X68SHJ77MDp71dc4A8+IOj3pX0IPgAHynGh+TxAUSl0k7go6cXzwM+YuFuMfCRiY/bBR/gA3wkgw9xXKQWH5IU3NHZSwZd3ZTJJoMP8JFafEgyUyU+gGgH8AE+YvlkEfABPhiywEfh8eEcF6nFh6qyyqTIAOJWnRzLQdfRj4IP8NGpTVh8z4BIO4EP8AE+ioKPOG4a+AAfBcFHEtsAH1HhQ3JNsWGz/hUZQJqvOPFZSU+lbuAGH+AjiULbJv4hC3yAD/CRDD6i/kK1jOIjiW14zIsp+EjwuAAfqceHJMl+15VrCbq58cmxHck88wE+0lzgW6Z2yEri+sFHtvGRxDbAR/bx4TE/puL+uF3wAT7AxwbwoWXq3fv2yAHi1pP3gUR5ogAf4CPmXFumFh9xHz/gI2M28Bi2CT7AB/gAH2nGRxy7N/f4kEx/so9NfSdygOz0Qmm6pNfBB/goND7ab/+W4AN8ZG/IAh/gg+MCfICP6GaxAuFDkkL/XVevsVsAmThxXFWyOyJ71IEP8NGjwjgFshn4AB/gA3wo5ocJ+AAfyT34wEch8bHu3lZL3z/FAhBJCkOfCD7AR/rwEfszKgOzjY84bh74SM8OBB+5G7KSuH7wkdLdxHEBPhI5Ln5jo6Yuiw0gO79cmqpOvQwLfICP3OJDkjZOzVkpld9pAD66tEGP+PrBR/7wwTOCGcGHgw/wkUd8SIH9rDvX3m2ATJw4rirTH8AH+CgqPtwbA0n9ork54AN8xHduAR/gA3yAD/CRgdEjbfiQ5tjQpodjBYgkKfRbwQf4KCI+JEnPNW8sycAH+Eg/PqL+rg/wAT7AB/gAH5l9WWV3jwvTT7u7lR4BZMeXyvdJ+hf4AB+Fw4ckla0f+AAf4AN8pAcfysdxkXd8JHH94CP7+EjfcdGiuj6/6+6WegSQiRPHVc30O/ABPgqHD0mq9CmDjxzhI4ltgI9sD1lJbCPRL1QDHzXZUaAcfOTjuPhtV7/7o2YAkSSr6hbwAT4Khw9JKodl8BH37vUYtgk+wEetLwo+wEfa1lLwAT56eFy439CTLfYYIE1XH/+wzB4HH+CjUPiQpOoKgICPmIYs8JEefMTxUAAf4AN89OiKwEcO8KG0HhfTrKF5TqIAkSTz6m/AB/hIBT7iHLRKXgYf4KOY+Cjwy0vAB/gAH8XDRxLbiOUTr7p5XJh+1NMt1wYg1bpfS6qCD/BRGHxIUiUIYr3/wQf4AB/gI1Z8xHFY5Og9XeAjv/jI5Xd9dBfl9pqCtttTAZCm8eNeMbe7wAf4KAw+4r7/846PJK4ffGQbH0lso3D4yNlr2zN7XIAP8JEWfEiSX2dD5rSlAiArfoEfgw/wAT7AR2rnTvCRL3wU9hlB8AE+0raOgo/i4EPvqrV8fS1uRc0A0mfAB/4s6ZWeP0DBB/gAH+Ajwp0LPlI6ZHFcgA+Oi2Tw4RFfBHykBx89/HVcN9uB095OFUCmNo6quPSLdA6H4AN8gA/wAT4yP2SBD/DBcVE8fCSxjdziw3vy67SpXP7fWt2SoJa/VlC2n2jlm9F55gN8gA/wAT4YssAH+EhyrQUf2cdH7lGeCXxI8ltsyLSXUgmQGZcd/4Jkd6ZHx+ADfICPxB9H4CN/Q1YS2wAf2ceHe76PC/AR8xIBPuLDh6oKyj+o5S0Kav0rhqGuBR/gA3xkCB8e8+M+MXzEtL+LgI9MfNwu+AAf4CM5fDjHRX7wIcl+a0MffDrVAJl19fF/k/Q4+AAf4AN8pAsfMQxA4CMl+IjjpoEP8AE+wEcR8KGqguB/an3Lgmh+XbsefIAP8AE+wAf4SAYfUX+nAfgAHwXBRxLbAB9pwock/brWz35EBpBl1naLpAXgA3wUEx9x7C7wUWh8ZPY4BB+JDVlJbMNjXrzBR4LHBfjIKT4qqtp/R3ELIwHIY1eeskTSdeADfBQTHyn/dnDwkX18eBaPQ/CRKD5iPS4U/8ftgg/wAT5qjQ9J+rGNaHouMwCRJO/V9r+SloAP8BH/0JOkWqJ+6RX4SNeQBT7AB/gAH+Aj/Wsp+OhGi2XV70V1SyMDyMxLT10g+S/AB/gAH+CDIQt8ZBsfcdzdHBfgA3zEO4+Bj/VfnV1hw2b9K3MAab/t1askr4AP8AE+wAdDFvjILj5S/rJK8JFPfKRyLgAfqcZH7XpdlWB8lLc4UoDMvPKU+ZJ+Bz7AB/hI8KaCj2wMi+Aj3/gA5RnARxyHPccF+MjAcWG6xA548N3MAkSSgjD8nqRKpI8i8AE+co2PqL9QDXx0aYMe8+MJfIAP8BETPhx8gA/wYXpIL+zws8h9EPUGmsaf/Jxq+iwI+AAfacFHHDcVfBQHH3HcdeADfIAP8FF0fMTxcM3sceHy8BwbN7GaeYBItXwWBHyAD/ABPvKKj6i/UA18gA/wAT7AR2bf0xXHceH6pdXP/HssNohjI03jT35Opt+CD/ABPsAH+AAf6T7uPVVXAz4SwkcS1w8+so+PbB8XCyW/IK4lK4hrQ1YJvuPScvABPsBH0viI4/fLyTc5g4984CPv3/UBPmq/ozLzckvwAT5q1gXW0Pzv3AFkxjXHv2BuN4AP8AE+8j5keQz3KfgAH+ADfKQdH57O4wJ8cFysfd1NGjbj5jhHpCDOjVVM/yNpIfgAH+ADfIAPT/bhDT7AB/gAH+AjdSNlAsfFcrm+YKYwtwCZc9UJb5rbFeADfIAP8AE+or7roh6ywEd68BHHYQE+wEdW5pC48eFZPy7+yxqa58U9KgVxb9C8fLWkF8AH+AAf4AN8FAAfSWyjcPjI2ctLktgG+Mg+PnL5XR+R42OOSm0/SGJcih0gTePHtbjrPPABPsBHxoasRO9T8JFZfBQW5eCjWMdFHPiI45AFHwXCxzIFlc/ZkDlthQCIJM28+sSJkk0FH+ADfGQIH4l93C74AB/gA3yAj25dGHyAj3VlOt+Gzn4iqbEpSGrDYaivaLUvJwQf4AN8gA/wke4hi+MCfHBcgA/wke51tFP9TUNnXJvk6JQYQGaNP2GuSdeCD/ABPsAH+MjRkAU+wAfHRfHwkcQ2cosPj/jXCd9Q1U41S3bYCpLceFv/xZe4wufBB/jIJD7i/v3AB/jIwvAAPrI9ZCWxDoKP7OMj9yjPCz7cZcHpNqLplaRXgUQBMqfxzKXmwRffu6vBB/gAH+nZBvjIPj4y8XG74CNV+HDP93EBPjguiosPyXW5DZsxOQ0TUZD0DWi++sQpkn4OPsAH+OjpxfOAj5j2BfgAHwxZ4KPQ+BDHRdHwIU1TS99vp2UqCtJwIyrlXl+X9EpsiwL4AB/gI6X4iGEAAh8pwUccNw18gA/wEdkdAj4ygg9J0r9UDT5ro6ZWAMgqzbl83ELz4EvgA3yAD/ABPoqCj6i/UA18gI+C4COJbYCPDOHD2yQfl4b3faQOIJI0Y/wJk+W6HXyAj1QsruADfGRxcAAf2cZHEtvwmNdL8JHgcQE+CogPyewsq5/5d6WsIE03puL+FZkWgA/wAT7AR7YeFh7DNsFH7vER+3ERM6LAR87xEcfuBR9dw4eus2EzfqwUliqAzLnm5NfkdkpMRzv4yCs+QvABPuIcssAH+OC4AB/gI7qZDHx0axuuu7Sk7zlKaUHablDz1Sf+2WXjwQf4SN8BDT4YssBHevERx93NcQE+wAf4SHBG6Ow2TA+ppe+4NL3pPPUAkaTq4sUXyNQEPsAH+AAf4AN8pGPI4rgAH1mZDcBH6vER7cftvqigcoSNmrpYKS6VAJlz85ltlUr4WUlvgQ/wkQ18xPEwAR/pGR7AR+6GrCSuH3ykdDdxXICPrOLD31ApOMyGzHkt7WNPkNYbNueHp7wk+RngA3xkAx9Rf6Ea+OjSBj3mfQ0+so8PnhHM0JAFPsAH+OhgG4sUBofZkKanlIGCNN+45qtPvk3SdeADfIAP8JEOfMRx14EP8AE+wEfR8RHHwzVXx8VSyY+w4TMeUkYK0n4D+w5o+6bJZ4EP8AE+GLKSx0fUX6gGPtKDD+XjuAAfHBeZxEdGX1aZFD4s/HQav+sj0wCZ2njasmqp8mlJL4IP8MF7PsAH+MjpkJXENhL9QjXwkZ7HFPgoFD7ydVy0yMJP27BZf8vaGBRk4UbOuuK0f8nsk5IWgg/wUQx8xLG9HH3kIPjIPj7y/l0f4KP2OyozL7cEH+Ajkm0slYVHZhEfmQGIJDVfddI8N/8PSZWePR7AB/jIAj4y+tr2WI418AE+wAf4iHlRBh/gI13HxUK5Ds0qPjIFEEmaedUpd5vsy+ADfCRxK8AH+MjmG9zBB/gAH+Cj6PhQno6L1xUEo6yheZoyXJC1Gzzj6pN+LNn/gg/wAT7AR/bxEfWQBT7Sg484DgvwAT6yMovEjQ/Py3ExX0H14za06WFlvCCLN3rHl3t9XbJJ4AN8gA/wAT4yOjgUDh85e3lJEtsAH9nHRy6/6yM2fDTJNdyGzn5aOSiTAJk4cVx18YBe4+T6E/gAH+AjLb8j+MgsPjzmYx98ZB8fmTwuUnxSAR/gY33bMP1e1eBga2j+t3JSkNUbPrdxXOtmlbePk+su8FFcfDj46ORVRf1xu+ADfIAP8AE+unVh8AE+1nuA23dtWPPxNqKpRTkqyPKNv+vary2vLFn6Gbmmgo9i4iO1gQ/wkdiQBT7AB8cF+AAf6V5HO3XFSyQ/zupnNCqHBVn/BebcfObSlpIfIekB8AE+wAf4YMgCH4XARxKLGfjINj6S2EZu8RH1VwP4C7LwAKufeYdyWpCHX+KxK09ZUqnr/WkzzQIf4AN8gI9MDVlJbAN8ZB8f7vk+LsAHx0VR8eF+u1rr9rNhsx5Rjgvy8ovMuXzcwj7Leh8k2T3gA3ykuzzgI6b7qQj4yMTH7YIP8AE+ksGHOC6Kg48WuZ9jDc3H2YHT3lbOC/L0y0y9ftzixQN7Hynp9+ADfKTTFXnBRwwDEPgAHwxZ4KPw+HCOi2LgY56qVm8NzT9UQQry9gvNbRzX2jz+5BMkuwJ8gA/wAT7AR0IHEfgAH+ADfICPTmS3qNQ21EY0Pa4CFeTz1zJvHn/yeZKdIykEH0XDR8yTFvgAH7nFR9RfqJZRfCSxDfCRbXwksQ3wkXZ8PC/3Q62+6RQbMmepClaQ51+uefzJP3Sz0yS1gg/wAT7ARyoGB/CRfXx4zI8pT+O6Bj6iuxj4yDk+KnL9r/os3ccamu9RQQvy/gvOvPrkXykIR0h6EXyAj/gDH6nGh2fleAQf4COmYwN85Bwfcexe8LGepisIPmYNM862fR5bogIXFOGXbL7qc3MqQXmIpHvBB/gAH2kcssAH+AAf4AN8RH9XeMS7F3ys4/rekfQlDZtxoA2d/oSoGACRpDlXnfDmjv/sc5jLL6/pNAI+wAf4SPmQBT7SNWSBD/ABPsBHBvBRm1pldrMqpT2sfsaNZt19X3L+Khfpl504cVxV0gUNX//lw+72E0kbgw/wAT7AB/jI0JCVxPWDj2zjI4ltgI/s46Nnmwsl3aageoENnfUPuLF2QRF/6RlXn/p/XtJHZfYA+AAf4COhIUvgA3xwXOQTH3Ec9hwX4COlx4XrXgU2xOpnjAMfAGStZl55yvzmAc+PknSOS8vBB/gAHzHjw2PeF+ADfICPmPDh4AN8FA0fLulOuR9oDTMOsaFND0MMALLuGhvD5vGn/tDlgyV/CHyAD/CRB3zEcdeBD/ABPsBH0fERx8M19cdFm2S3yKp7W/2MI62heRq0ACCdbtb4z81dPLDfcMn+e73PhoAP8AE+MoCPqL9QDXykBx/Kx3EBPjguMomPjL6nqzbHxSKZXSn3D1p90yk2bNZcpumuVeYuaG9u47hWSd8efu4tvwwV/lDSJ8EH+AAf4AN8JLyNRL9QDXyk5zEFPgqFj/QeF3PkfrNa+v7WRk1dzPQMQGpW0/iTn5P0qYZzf3Wky38oaRfwkTQ+PP8PPE/ydwcf4KPWFwUf4COh5Rt8gI/aHxcLZfZ/kt1gw6Y/wqRcm3gJ1jqaMf6UyYH6DjLXdyUtBh/gI1f4cPABPsAH+MgKPjydxwX4SBEga35cLJbr/+Q+Vkv7fMCGNZ0JPmobz4Csp6bx41okNQ7+xm9/VArbvmmur0nqCz7AB/goEj7ieJiCD/ABPsAH+Ij1pXxrb2qppPskm6ilvW/nJVYAJPHmXHXCm5IuGPHNX11dqfrXLdTZMu8DPsAH+CgCPqIessBHevARx2EBPsBHyvGRxDaSwYdLekTSPTL7qzbdZJrtdtdyEQBJW9OvPOV1SRc0nPPzG93sXLlOk9QffIAP8AE+0jv9go/OX2XOXtuexDbAR/bxkcvv+nCp/dvJ5ylUk8ymqmL32v7TX2e6BSCZacY1p70g6ez9z/vpJZW28uflOlfyncAH+Eg/eMBHZvHhMR//4CP7+MjkcREHPuI4ZMFHwvhwSfPlelzmsyVrUhjOsobmRQwEACTzPfiD09+V9MORjVOuW7bwxWPd9UVJB6nLb+4HH/ENMmnCQEw3HHyAD/ABPsBHzy4MPtKKj9clvSDpBZnPV2jPyuwx9V48z/Z5bAmTKgDJdVMbR1UkTZA0Yfi5v9zOQ53k5qdL2g18gA/wwZAV/2M6Lnz4CzK7tEe/X3VDP2AR38HV6PehxfFAWWUjYRTXH8b0O1rEu6yqTGQxP6jCLu7vWv2OoW8ss01k3ksK6uS+8Yq/XSrz5fJgsVxtMr0r9+UK/A2FwRsKw9dU1/a6DZmzlCkUgJCkpvGnviLpcsl/0HDOL0fIdZybjpG0M/gAH+ADfET/pvM4n/kIXrdBf72ZlZ+IiABIKjKfcY0elPSgpK83nPOz/dyCY+Q6TNJ+kgfgA3yAj4zgI4lt5P1lV0REBEAo2mZc8/mHJD0k6dvDz/3JZmFYHuWmg03+cUkf0arvGwEf4CMz90dB8JGJj9sFH0REBEBoHTWN/8Jbkm5b8X/a/7yf9q9UykOsGg5zaV+ZPuKuD5vUG3x052rC9OzsRPERw8cagg/wQUREBECy14pP05qy4v8kSSMbG8vLF26/syrBdmGgHdyDbc3C7STbXm4DZN5fUlmu/jJfHN10YBHgo0ZAWMc3tboHz4IP8FEcfMRx08AHEREBkNw3tbGxIum5Ff9HWQt8gI/Y8BH1F6qBDyIiqm0BdwER+Eg1PpLYBvgAH0REBECIwEfS+FAy+PCYfwnwAT6IiAiAEIGPNODD478DwQf4ICIiAEJE4AN85BkfREREAIQIfIAP8BEbPpAKEREBECLwkRQ+BD7ABxEREQAhyqpKsocPz/pdBz7ABxERARAi8AE+Ovo9wAf4ICIiAEJE4AN8gA8iIiIAQgQ+wAf4SO/jloiICIAQZX2IAx/go9YXBR9ERARAiMBHh1cNPsBHSvGBYYiICIAQxVkr+EgNPuIYlMEH+CAiIgBClMfAR22nYfABPoiICIAQEfjIJT6S2Ab4ICIiAEJE4KOg+PAYtgE+iIgIgBAR+MgjPuIYzsEHEREBECICH+Cjq1cEPoiIiAAIEfgAH+Aj6rsi5BgmIiIAQgQ+CoqPJLZRaHzwtAgREXWvMncBUZL4iGljRcBHJj5uN3f46O2Pjf4gB3SSLUvPTVle4N3Qq9+/bZ97lvB4JAIgRBnAh0e/MfABPqLBhyTtI/Pna7+9GITunpPjohTpQ6HTV7SemxLJ49ZjPP46cxWVJf8haQInOKLOxUuwiMAH+IjliwZzh4+Itgc+eryjksBHHMdeWvHByxGJAAgR+AAf6cOHR3yxvLznA3yAjxQ+pjp3XBgnOSIAQgQ+sj4ogo/848Njfky5J3jcg494j4tY8UFEAISoyPhQMvjwmH8J8AE+UokPBx+Fwccahc4zIEQAhKio+Ij55SXgA3xwXICPQuJjzR8IAAgRACECH+Ajz/iI4+4GH+ADfKTjQCUCIEQEPsBHHoasJK4ffGQbH0lsIyv4MN6ETgRAiIqED4EP8FHLbYKP9OAjjsOe46LH+JAk4z0gRACEqEj4yOzgAz7AB/jo1o4CH+nCBxEBECLwEeEABD7AB/gAH+Cjo5/hGRAiAEIEPsAHQ1ZcxgAfMR8bHBcpw4ekkE/BIgIgROmQCPgAH+l5TMX9iVfgo/Y7CpSnEx9EBECIkjMH+AAftb4o+AAfCc3C4KOr18gzIEQAhAh8pBMfcczb4AN8gI8eXRH44NxGBECIMqMQ8JH4kAU+wAf4AB8J4IOP4SUCIETgA3yAjyTxEcdh4fk5vsFHtvEBQIgACFHugAM+0j8ogo9490cS+Mj7t5yDD043RACEiMBHRMOJx7AN8AE+CoGPOA7ZzOCDZ0CIAAgR+CjOkAU+wAfHRTL48IgvkqFnPvgeECIAQgQ+GLLAB/jguAAfsRx7RARAiMAHQxb4yBk+4jr2wEd+8BH7NngTOhEAIQIf6RyyktgG+Mg+PiJ/9gN85A4fcR8XxntAiAAIEfhIJz4y8XG74AN8gI9k8KGcHBdEBECIwAf4AB/gA3xkAB+e3eMi5CVYRACECHyAj5h3I/gAH+Aj4W3wzAcRACEi8JEtfET9hWoZxUcS23CP/VAEH0kdFznBB+8BIQIgROAjJcMo+Mg+PjyP+HDwAT5quD0Xn4JFBECIMuGP2DfgMf8S4AN8gA/wkSg+4ti9vA6LCIAQZQIfMb+2HXwkPGSBD/ABPpLBh0e8e1f5A+Ob0IkACBH4AB+FGLLAB/iI+fgGH+v4A16CRQRAiNKpD/ABPtL/eAIfKd1NHBfpxQcRARCitOLDI75+8JE/fDj4yAY+HHwUHR8hn4JFBECICoWPOOZT8AE+wAf4KDo+iAiAEIGPjs+S4AN8gA/wAT4i2N56tmG8B4QIgBCBD/CRO3zE8RACH+nZURwXmcFH+zgFQIgACBH4AB9xTvQZ/a4P8FH7HQXKC4gPIgIgROADfNTihub9iwbBR0rxofQeF+Bj3fESLCIAQgQ+0jj0gA/wAT5q9pgCH+nBxwqCcP4jAiBE4CO1Qxb4AB/gA3ykCB+JbYMIgBAR+AAfhcJHHIdFXgZF8JFrfNTiiwZDXoJFBECIwEe28ZHENgqHj4j3RxL4yORxAT4yjw9JMl6CRQRAiMBHtvHhMWwDfICPQuAjjkO24PggIgBClN6TdJGHLPABPjguksGHR3wR8LFinOIZECIAQpRD3eR9yAIf4IPjonj4SGIbPPNBBECIiCELfDBkcVwUFB95OS74HhAiAELEkBXT8AA+wMd7m/B8Hxfgg+NiAwTh3EUEQIjAR3dP7Jn4uF3wAT7ARzL4EMcFEfW4MncBEfjIFj7iuGngA3zkAh9VSS9I9ozMn5LbK/LwXSlYKIVLFaiPQm0s2UaSbSH5HpJ2X/F/G0d2h+TxuOB7QIgACBH4yDM+ov5OA/ABPjKLD5f0kFz3ycIp6l33dxs0dXE3dmugR0Z8VGFplGSjJD9I0kbgYz0Zn4JFBECIsoyPJLYBPrKNjyS24Z6DwyQ3+HhZst/K9FP72APP9niWNoXS9EckPSJpvE8Z2Uf9K0fKdIqkw7o9O/CyKyICIEQpxYfHsA3wkS98eB7x4eBjw5d7WEF4qfaddqtZdDveRk1dJmmipIn+0IidpODrcn1RUl/wsSJegkXUpXgTOhH4AB/gA3xkCx+z5DrYBj+wn31s2sQo8bEWRvab/qLtN+1smX9I0nVqf59JLIdXavHRfvUAhAiAEIEP8JH8LgUf4KPGj9F3ZDpHz2093AY/cF+SK5jt9+CrNnjaV2QaLGl6939Hj3j3xoEPXtpF1NV4CRYR+Cg4Pjz+/Q0+wEfXr/ZPKlc+b/tMfz1Nq5ntN+1Rdx2ohw88S+5XSOpdSHzwRYREXYpnQIjAB/iI7O4AH+nBRxxzcCTHRUWu72q/Bz6dNny8hxBTaPv9/Vq5jZDsucLhg4gACBH4AB/gA3x0en+kGx9vy+0gG/xAY/snU6U7G/L3h9TWOliuvxYOH+bMU0QAhCibHgEf4AN8gI8VvSaFo2zw/X/P0rJmDc2L1PftIyT9Lhl8xPFw5ZkPIgBClEVtgI8c4yOOhxD4yDU+TP+QysNtv2mPZnG1s0FzWzV42kmS3Rg/PhJ6T1fIp2ARARAi8FEcfCSxjUS/0wB8pOcxFclx8YaC6idtv/tezPKqZ6ZQg//+ZUm/yg0+nGc+iAAIEfgAH126KPgAHzFat3vbW6TQD7N9Hnw6D6tf+/eTtHxB0t25x4cFPANCBECIwAf4AB/gI8rdVPPv+nC5fc6G/P2hPK2CNmROm5b5WEnP5BYfRARAiIqBjzjmbfABPsBHTPiQzK6xwfffkcfV0A548F2ZnSBpefbw0ekf5BkQIgBClHd8RD1kgY/04COOhyz4SBQf0mz1evOCPK+KNnjaHMnPy9SB0rVPvAIgRACECHyke/oFH52/yjy8vCThbaQbH1UFOsMGzW3N/fI4ePqPJM3IxnGRxL8EEAEQIgIfEc2V4KPQ+MjkcREZPiTpOtv3gYeLsEK2f5licJakau7wYbwEiwiAEIEP8AE+wEf68fG6wl7/WaSVsv1N9nZzrvAhSSGfgkUEQIjAR6y/MvgAH+CjW1c+3obcu7BwS2al7fuSWtN3XCS1oBIBECJiyAIf4IPjInp8LJQFNxZx1bSG5n/qvS8oBB9EAISIYpnhE75S8FFUfIDytOBDMv3IPjb1nQIvmJdJCnODD94DQgRAiAqBj0x83C74SBU+In/2A3x0egPVys+LvGTakOnPS5qaC3ysJCURARAi8AE+wAf4SCE+JIXTVgzgxc78lpzgg4gACBH4SB4fcdw08AE+sogPl1y/ZvGU1GK3SVqaD3zwEiwiAEIUR63qDT5qfEHwAT7yjg9JMr+TBVSyAx58V6b7c/HMh/ExvEQAhCiWs2e4LfgAH7Hsi9TiI45fKWf4cD1t+z34KgvoikJNyTw+2n8PAEIEQIjiAIgNAB/go3vbzAs+HHx09cKm+1g81wUQ3vNBBECIaEMD3kbgA3yAD/DRtQv7DBbPVXpx24cltWQeH3wMLxEAIYrp8NkYfMSFjzjmTfABPqLGh6TAnmLtXGVuHzexKunZTOODiAAIUXYCH7FKBXyAj1jlu45teOkZ1r617pRnot0NseCDZ0CIulCZu4Cou6cbbwEfGcFHEtcPPlK6m5I8Lvzfxf7283X2dLbx4ZIBEKKuxDMgRN1vGfjICD4cfGQDH55jfEiSLWDZ7Ohu0VuZxgcRARCi2HLrBkDAB/gAH8XEhyTTuyycHd4xizKPDz6GlwiAEMVz9IRdBAj4SA8+4pihwQf4WOtHFrNwdlBYa5jl/OWIRACEqMB58A74yCo+ov6Wc/CRnmExTceFtbJwdnT3ha3ZPy74GF4iAEIUy0mz0slvMy44PpLYBvjIPj4y8yb3rlywVt8dlLdJxDbmuCACIETUqfNQ22vgo5YXBR/go9bb9HQdF67+LJwR3S9JHxcW8AwIEQAhij4bNHWxpLfjcAP4AB/gI+P4kCQDIOuYRPrHsasjPS5CXoJFBECI4srX9w2+UQ9Z4CM9+IjjsQY+Mo2P9ott5855t4N27Nmu9hwcF0QAhIg6m/lTqcdHEtsoHD4i3h+el+8zKDQ+JKmvHh6xAwvnWvfNHpnHB19ESARAiGLs6dTjw2PYBvjIFz48hm1kEh81uFle+jDL5lrtnml8rCQIEQEQopgGi0fBB/gAH0XBh/f8Im57sXCucnc8dsCmkrbPOD4k4z0gRACEKK6qldnxDlngA3yAj8zio31QHcnCuUqt1U+oK88exPYt513c7W5ldiYRACGKJdv7b/+W7KVUDVngA3yAj3Tio72P+5SRDKsrC21U+vDh3dntm7EziQAIUZxn0FmxD4vgI7/4iCXwkRA+JGmABrQNYd1ckengHOBDMvVmZxIBEKI4h7n7ox20wEeh8OExvrYdfMSNj5Wn3nGsm5LPOHBPSYMyjw+Jl2ARARCimCuF94IP8AE+wEenL2J+Ai/DklSqnpILfEiSQr4hhAiAEMWX7X7vk5L+mT18xHHTwAf4AB9r/6xtrY3bxhR53VzxhYwn5gMfkqS3OBsSARCiuLs3e/jwiC8GPsBHQfDRnW0E9rVCr5hzhh+n9X38brbwIcne5DQwbkFgAAAP7klEQVRIBECIYs4mg48c4COJbXjMT1+BjwSPi9V++FB/eMTQwi6ZbufnBx+SeAaECIAQxd7G/e+SazH4yDg+PI/48Ih/JfDR7R8OgwsLaY85w4+QNDhH+JCkBZwIiQAIUazZDhNbJE0GH+ADfICPLvzw0f7QgZ8oFD6mjCwrDP4nZ/iQQj3HmZAIgBAlwZCJxcZHHPMm+AAfucGHJJncf+SzB9cVZpncaPk5kn80cXzUurq2pzkHEgEQovjr3/8vkt4pLj5ifiM1+AAfSW2jtsfFXrJ+XynCEukz6reX2X+mAh813Zy/o8Fz/sVJkAiAEMWe7TCxRWa3gI8o5kHwkR58xGGGoh0X/n1/eMS+ucaHK1Cp/HNJ/fOFD0lms8zE94AQARCihKpUblAUrxsBH+AjNfhw8FH7H+6jMJjg0/bvn9u1cfaI/5R8dO7w0X6dszj5EQEQosSyve99UvIHGLLAB/gAH11sN/WzG91leVsXfc7wQyV9O5f4kCTTDM5+RACEKGGFBDcxZMV/NeADfGT+uHCdoDkHXJovfBwwWKFNXHveyM1x0abQ7+fERwRAiJJtyRu3Snohc0NWEttI9FvOwUd6HlPgY5XO99kHfCMX+Jg9YleF4Z+01vs+8nRc+HRraF7EiY8IgBAlmg2Z0ybZFZnDR96/6wN81H5HZeZN7hnBx/tXcYXPPuDrmcbHjAP3lGuKpK1zfVyY/YWzHhEAIUpHdfZTyV8BH+ADfNToMVUcfEiSSbrKZx/wQ/fsnad91vBhKlXvl7RD7o+LSnArJzwiAEKUimy3u5ZLugp8gA/wAT56cBVf05wDfu1zR26cGXzM3P9EyaZI2kIxH3rxHxc2y0Y08Q3oRACEKEW16WaZvw4+0oKPOOYf8AE+ar09P14tbbN9zoEfTTU8pg/v6zNH/Fjmv5bUb+3f0fN4XPyeEx0RACFKVbbPPUsU+n/GdtIFHxu4yogHIM/Qm//BR1bwsfI/9pCHM3z2Ad/w2YPrUoeP5hHDVWczZfpCx79CHvHhy+X+G850RACEKH3tuf+PJc2JZpYBH4XGh8ewjUziIw6zxIqPlfWV/Eqpz+M+64DRqYDH9OGb+cwRP1SgaZL2Kg4+JLlNtIbmf3OSI+pexl1AFPHp8alDRyn0+8AH+AAfceDDI75IIvhY+wdMkxWG/2NDm2bGvqY1D9tcVne2zL8qaZN1/wo5xUf7n4+w+plNnOGIAAhRehEy75DbJDsWfIAP8AE+aryNv8rsWnnLX9o/AjzCR+Kcho+oGpwu05mSNl7/rxDjsRH/l2/OtobmoZzZiAAIUboB8szoD6oSPCGpL/jICT5iAQj4yBU+oj0u3pDsd5ImSi3NtcKIzzrgg7LwCLlOljSkc79frvEhSUdbQ/MkzmxEAIQo/QiZN+ZcSVeDD/ABPsBHxMfFYrmmyex+uT+mIHxGz28/38ZNrK73FsweuYVU+bDc95B8f5lGybVz136/3OPjIdU3DzGL/V1KRACEiLozrzYGenL6VLkOBB/gA3xkBR81ukOSPy5a278cNXhX8sWSLZXCsmT91f4+jk0lbdaz7eUeH5LbUTZ8xh85oxEBEKLsIOTxw3dVUH1U0kbgA3yAD/CRj/dCFQQfUrPqm4fz7AdRz+NjeIniFP/edz0v9/Pj0Q74AB/gA3yAjxoVyu1s8EEEQIiy2aC/Xi/pr5EOQHnHRxLbAB/ZxkcS2wAfGcLHBp/9+KkNn9HMCYwIgBBlMjO5gurxkl4AH7XYZh7wEcfdVnB8pOrjdsFHxvDxtlp7XczZiwiAEGUbIR/52wLJ/kPScvABPqL/QjXwkR58xLF7wUcN8SG5nWcf//sbnLmIAAhR9hEy6O6Zkr4GPsAH+CgSPjzi3Qs+aooP87+oYcZPOWMRARCiHCHknpsl/TTeIQt8gA/wAT4ygI8ktrE6Pt6Q+Wm88ZwIgBDlr36tX5E0MzNDVhLXDz6yjY8ktgE+so+P5D5ut70w+IINm/UvTlJEAIQod9kuU5epV+kISc9kAh8OPrIxZKUIHx7zjQUf4KOn+DC/gS8cJAIgRPlGyG53vaFK+WBJL4MP8BHbkAU+coCPOB6uhcPHdC3Y/FzOTEQRzj3cBUTpyeceOkgKH5C0GfgAH+ADfGz46jzih2vhjouXJQ21huZ/c0Yiii6eASFK078IDLp7rsw/JWlJNvARx6wAPsAH+IgdH7Ed+Kk6LpYpCI8DH0QAhKh4CNnz3hlyO15SayqGh0S/UA18pGdYBB+FwkfxUB5KOs2GzZrFWYgIgBAVEyF73TNZssMlLe7ezAE+GLLiuxvBB/jIOD4k829aQ/PvOfsQARCiYiNk0D33ScEnJS0CHwxZyeIj6u/6AB/pwYfyfVx0jI+LrX7meM46RDHOONwFROnOnxwzWFX/i6QtwAf4AB/gI9qHrOf3uOj4j39oDc3ncKYhAiBEtOZ587HReysI7pH8A/nGRxxDFvgAHynHRyLHRSHxcZPqm7/EN50TxR8vwSLKwr8UfPTex1WqfkLSP8BHhvCRxDbAB/gAH5354yvABxEAIaINIeQjf3tGFgyV9DfwkRF8eAzbyCQ+4jAL+AAfHf6xy+271tB8HvggAiBE1BmEDLr7Lb3Rdpiky8EH+MguPjzii4CP9OAjjl+n0/ioyu1MGz6jkbMJUcLzDHcBUTbzxw/5fzL/X0l14AN8gA/wkU58eFrwsUzmx1v9zD9w9iACIETUk1Pv3NEHyHWbpK3AR1IAAR+5wkchUF44fLyiMDjWRjTN5KxBlI54CRZRlv8FYdC901QNGiTr+okVfIAP8AE+8o4P8/tVLe0HPogACBHVEiH73DNfb7TtL9d3ZaoyZIGP4uEjjrsCfGQOH9LNKlUPsf2nv86Zgihlswt3AVF+8nljPq4wvEXSjuADfBQHH1G/7wN8ZAwfy+T2JRs+4xecFYgACBHFcfp/9vABam29Tm4ngQ/wAT7AR37w0QmAuD2hUvVkGzbrEc4GRACEiOKGyNxDxsr9ZkmbJDJkrXW14AN81Ppi4AN8vPfHLulavbXZefbJu5ZzBiACIESUFEKePGxnhZUfKdSnwEeNfynwAT7AR1rwMV/mp1r9zL+z6hMBECJKC0QeP+QYyX8oaQfwAT7Ah+L/rg/wERU+fi7pHGtoXsRKTwRAiChtCJl9ZD/1bjlP0oWSeoEP8AE+wEeG8fGcwuCrNqLpL6zuRACEiNIOkUdH7SELrpfpIPABPsAH+EjncbHOK25RaD/Q25teyns9iAAIEWUJIS7TEwd/XvJLJdsSfICPnm0TfICPWI6NP6hSOsf2n/4iqzgRACGirELk2cMHaFnr+ZLOkdQPfKRiyAIf4AN8rN5zcp1tDc1/ZtUmAiBElBeIPHLQdirbf8p1uqQS+AAf4KPW2/OIH655PC78DSm4Skv7/NBGTV3GSk0EQIgojxB5fPRHJF0o+Qmdggj4AB/gA3zUfhtvSfYDldqutSFzlrIyEwEQIioCROaOGiQvfUfun1nnOgE+wAf4SBYf+Tsulkj+I/Vqvcw+9sg7rMREAISICgmR0R9T6OdL+oxWfUYEfNR+IvaIrx98gI/0HheL5bpJ5cplNmTOm6y8RACEiEj+6JhdFFTPkfRFufqCjzTiowtXBD7ARzqOi39LulEKr7X6mQtYaYkACBHR2uPIvEO3UbXyFUlnyH0L8AE+wEcS+IgD/xEeF6bHJV2tjd79rQ2a28rKSgRAiIg2PJo8e3hvLV32HzL7hqSPgg/wAT7ARyeu9kEFulxDZ9xpFss754kIgBBRLjHyxMGjVA3PlNkxknplEh+RzXTgI7f46PAqwUcHLZT0Oym80epnPsqKSUQAhIhqN7Y8dsCmUt1Yyb4maRD4AB/go9D4mCP3m9W35Te2z2NLWCGJCIAQUXQjjMs09+CRcn1O7sdK2hh8ZBEf3bww+CguPkyvSv5LVYKf2Yim51gNiQiAEFH8GHl0zEZS23EyO0XSKEkB+AAf4CNt+FhlG13f1HJJf5bsZ3px+7ts3MQqKx8RARAiSglGRm6voPQfch8radhq6w/4AB/gI0v4WCbZ3bLwVgWVyTZkzkJWOCICIESUbow8PmYHhdVjJR8r0wi5R7wWgY9c4WODVwM+IsDHMkn3SjZRHv7BGpoXsZIREQAhomxi5KGDdlKgT8v805I+IakOfIAP8JEKfCyR9GeZblXvpX/izeREBECIKH8YeXjkJgp0mBQcJfmhkjYFH3nBR43uEPARMT5sruT3SHa3qnrARjS1sDIREQAhomJgZMLYkj785r6Sj5bbaHX52RHwAT7ARyfwsUDSfXK/V+W6v9iQaS+x+hARACEikuRPHry5WquHSMHBch8p04fAR0L46PLFwEeK8NEmeZPc7pEF92jo9DlmCllhiAiAEBFtaIyaO/IDqgYHKvTRCnSAXHt2OCyCD/BRZHy4Fsv0qMynyfWglpen2YHT3mYFISIAQkTU0znr8Y/voDDYX/Lhko2QtK9cZfABPgqFD9dzCjRd0nSZpmtw01ye4SAiAEJEFAdIZh/ZT8HioSqFI+Q2VOaD5bYj+MgLPiLAQfbwsUjSo5LPlNs0edhkDc3/5ugnIgBCRJQWlDw6ZivZ8sEKNUSuITLbT9L24AN8ZAAf8yU9IrfHJH9UQelRDZk23yyWN44QEQEQIqKazYGzRw9UubK3ZHtK4SDJBkvaR9LGqcRHj7YJPjKAjzZJz8o1R6Y5Mp8ra3vEhsx5k6OViAAIEVFeUeKNgR6a+kGVbU+F+rAs3EPSnpL20KrfTQI+wEf38FGV9KKkZyU9J9kzsvBZBfasnt9+vo2bWOUoJCIAQkRE7fPj4wdvrUr1I5I+JPkH5fZBme8q6YOSNgMf4GOVK3u5HRn2nMyflduzsvAZ9V30Dxs0t5WjiYgACBER9WzifOyATdVW90GZ76LAd2x/07vvKGl7mXaQ6wPgI6346NI2XNK/JL0i6VXJX5IHr8r8nzL7p1yvanHdizZq6jKOCiIiAEJElBxQnj28txa17CCz7WTV7STfSgq2lYUfkNsHJG0jaWtJW4KPRPDRImmBZG9JvkDSv1cA4+V2YFRfkZVfllpesyFz2nhEExEBECKifEBl9uA6hf03V29toWp1c7ltvgIlWyiwzeXhFrJgU7kPlGyA5AMlDdSq708pNj4WSVou+TuSLZBsgSx8S6EtkNkCKVyg0N5Syd9QJVggC95SsGSBDZmzlEcfEREAISKirszzM+oHKOg9UL2qA+TlfvLqQLn6KFBfyQZK3kuu/pL1k6y3bAVa2r+0sf+K/+4jed8VV7mRpF5rnzt8kw3clDZJi9f4sxZJy9bwxbuSKmv8Wfs3dZsvknyZFCyWabFCXyazRVK4VEFpmdzfUdWXyaxFbdV3tFH/5bbPPUt4FBARERERERERkSTp/wM7UcQycTaE8wAAACV0RVh0ZGF0ZTpjcmVhdGUAMjAxNy0wOC0xMFQyMjoxMzozNiswMDowMNdzkLUAAAAldEVYdGRhdGU6bW9kaWZ5ADIwMTctMDgtMTBUMjI6MTM6MzYrMDA6MDCmLigJAAAAAElFTkSuQmCC;" vertex="1" parent="YBwU7Yhgo7duEBONtjg1-1">
                    <mxGeometry x="160" y="180" width="60" height="60" as="geometry"/>
                </mxCell>
                <mxCell id="Ile_EK-qomXIzkZfapIx-0" value="" style="verticalLabelPosition=bottom;html=1;verticalAlign=top;align=center;strokeColor=none;fillColor=#00BEF2;shape=mxgraph.azure.git_repository;" vertex="1" parent="YBwU7Yhgo7duEBONtjg1-1">
                    <mxGeometry x="165" y="110" width="50" height="50" as="geometry"/>
                </mxCell>
                <mxCell id="Ile_EK-qomXIzkZfapIx-1" value="" style="endArrow=classic;html=1;" edge="1" parent="YBwU7Yhgo7duEBONtjg1-1">
                    <mxGeometry width="50" height="50" relative="1" as="geometry">
                        <mxPoint x="189.76" y="180" as="sourcePoint"/>
                        <mxPoint x="190" y="160" as="targetPoint"/>
                    </mxGeometry>
                </mxCell>
                <mxCell id="3x4_MJZCkBuaan5wwYKc-1" value="" style="aspect=fixed;html=1;points=[];align=center;image;fontSize=12;image=img/lib/azure2/compute/Container_Instances.svg;strokeColor=default;" vertex="1" parent="YBwU7Yhgo7duEBONtjg1-1">
                    <mxGeometry x="440" y="180" width="30" height="31.87" as="geometry"/>
                </mxCell>
                <mxCell id="3x4_MJZCkBuaan5wwYKc-2" value="" style="sketch=0;outlineConnect=0;fontColor=#232F3E;gradientColor=none;fillColor=#067F68;strokeColor=none;dashed=0;verticalLabelPosition=bottom;verticalAlign=top;align=center;html=1;fontSize=12;fontStyle=0;aspect=fixed;pointerEvents=1;shape=mxgraph.aws4.sagemaker_model;" vertex="1" parent="YBwU7Yhgo7duEBONtjg1-1">
                    <mxGeometry x="550" y="180.5" width="59" height="59" as="geometry"/>
                </mxCell>
                <mxCell id="3x4_MJZCkBuaan5wwYKc-3" style="edgeStyle=none;html=1;" edge="1" parent="YBwU7Yhgo7duEBONtjg1-1">
                    <mxGeometry relative="1" as="geometry">
                        <mxPoint x="540" y="210.12000000000003" as="targetPoint"/>
                        <mxPoint x="500" y="209.88000000000002" as="sourcePoint"/>
                    </mxGeometry>
                </mxCell>
                <mxCell id="3x4_MJZCkBuaan5wwYKc-4" style="edgeStyle=none;html=1;" edge="1" parent="YBwU7Yhgo7duEBONtjg1-1">
                    <mxGeometry relative="1" as="geometry">
                        <mxPoint x="660" y="210.12000000000003" as="targetPoint"/>
                        <mxPoint x="620" y="209.88000000000002" as="sourcePoint"/>
                        <Array as="points"/>
                    </mxGeometry>
                </mxCell>
                <mxCell id="3x4_MJZCkBuaan5wwYKc-5" value="" style="sketch=0;html=1;dashed=0;whitespace=wrap;fillColor=#2875E2;strokeColor=#ffffff;points=[[0.005,0.63,0],[0.1,0.2,0],[0.9,0.2,0],[0.5,0,0],[0.995,0.63,0],[0.72,0.99,0],[0.5,1,0],[0.28,0.99,0]];shape=mxgraph.kubernetes.icon;prIcon=api" vertex="1" parent="YBwU7Yhgo7duEBONtjg1-1">
                    <mxGeometry x="670" y="186" width="50" height="48" as="geometry"/>
                </mxCell>
                <mxCell id="icj_MJOhULwOusPO3SDc-1" value="Test" style="rounded=0;whiteSpace=wrap;html=1;verticalAlign=top;fontSize=10;dashed=1;" vertex="1" parent="YBwU7Yhgo7duEBONtjg1-1">
                    <mxGeometry x="430" y="50" width="300" height="100" as="geometry"/>
                </mxCell>
                <mxCell id="icj_MJOhULwOusPO3SDc-3" value="" style="sketch=0;outlineConnect=0;fontColor=#232F3E;gradientColor=none;fillColor=#067F68;strokeColor=none;dashed=0;verticalLabelPosition=bottom;verticalAlign=top;align=center;html=1;fontSize=12;fontStyle=0;aspect=fixed;pointerEvents=1;shape=mxgraph.aws4.sagemaker_model;" vertex="1" parent="YBwU7Yhgo7duEBONtjg1-1">
                    <mxGeometry x="550" y="70.5" width="59" height="59" as="geometry"/>
                </mxCell>
                <mxCell id="icj_MJOhULwOusPO3SDc-4" style="edgeStyle=none;html=1;" edge="1" parent="YBwU7Yhgo7duEBONtjg1-1">
                    <mxGeometry relative="1" as="geometry">
                        <mxPoint x="540" y="100.12" as="targetPoint"/>
                        <mxPoint x="500" y="99.88" as="sourcePoint"/>
                    </mxGeometry>
                </mxCell>
                <mxCell id="icj_MJOhULwOusPO3SDc-5" style="edgeStyle=none;html=1;" edge="1" parent="YBwU7Yhgo7duEBONtjg1-1">
                    <mxGeometry relative="1" as="geometry">
                        <mxPoint x="660" y="100.12" as="targetPoint"/>
                        <mxPoint x="620" y="99.88" as="sourcePoint"/>
                        <Array as="points"/>
                    </mxGeometry>
                </mxCell>
                <mxCell id="icj_MJOhULwOusPO3SDc-6" value="" style="sketch=0;html=1;dashed=0;whitespace=wrap;fillColor=#2875E2;strokeColor=#ffffff;points=[[0.005,0.63,0],[0.1,0.2,0],[0.9,0.2,0],[0.5,0,0],[0.995,0.63,0],[0.72,0.99,0],[0.5,1,0],[0.28,0.99,0]];shape=mxgraph.kubernetes.icon;prIcon=api" vertex="1" parent="YBwU7Yhgo7duEBONtjg1-1">
                    <mxGeometry x="670" y="76" width="50" height="48" as="geometry"/>
                </mxCell>
                <mxCell id="0PmCecGB-BEGiDDHTHOc-0" value="" style="sketch=0;aspect=fixed;html=1;points=[];align=center;image;fontSize=12;image=img/lib/mscae/Docker.svg;dashed=1;" vertex="1" parent="YBwU7Yhgo7duEBONtjg1-1">
                    <mxGeometry x="450" y="63" width="37.2" height="30.5" as="geometry"/>
                </mxCell>
                <mxCell id="-7--BIwmi0uGW3nCbmP--0" value="" style="aspect=fixed;html=1;points=[];align=center;image;fontSize=12;image=img/lib/azure2/compute/Kubernetes_Services.svg;strokeColor=default;" vertex="1" parent="YBwU7Yhgo7duEBONtjg1-1">
                    <mxGeometry x="460" y="211.17" width="33.24" height="29.33" as="geometry"/>
                </mxCell>
                <mxCell id="-7--BIwmi0uGW3nCbmP--1" value="" style="endArrow=none;html=1;dashed=1;fontSize=10;strokeWidth=1;" edge="1" parent="YBwU7Yhgo7duEBONtjg1-1">
                    <mxGeometry width="50" height="50" relative="1" as="geometry">
                        <mxPoint x="440" y="235" as="sourcePoint"/>
                        <mxPoint x="490" y="185" as="targetPoint"/>
                    </mxGeometry>
                </mxCell>
                <mxCell id="-7--BIwmi0uGW3nCbmP--4" value="" style="aspect=fixed;html=1;points=[];align=center;image;fontSize=12;image=img/lib/azure2/compute/Container_Instances.svg;strokeColor=default;" vertex="1" parent="YBwU7Yhgo7duEBONtjg1-1">
                    <mxGeometry x="472" y="101" width="30" height="31.87" as="geometry"/>
                </mxCell>
                <mxCell id="-7--BIwmi0uGW3nCbmP--5" value="" style="aspect=fixed;html=1;points=[];align=center;image;fontSize=12;image=img/lib/azure2/compute/Kubernetes_Services.svg;strokeColor=default;" vertex="1" parent="YBwU7Yhgo7duEBONtjg1-1">
                    <mxGeometry x="435.76" y="102.27" width="31.43" height="27.73" as="geometry"/>
                </mxCell>
                <mxCell id="-7--BIwmi0uGW3nCbmP--7" value="" style="endArrow=none;html=1;dashed=1;fontSize=10;strokeWidth=1;" edge="1" parent="YBwU7Yhgo7duEBONtjg1-1">
                    <mxGeometry width="50" height="50" relative="1" as="geometry">
                        <mxPoint x="469" y="103.37" as="sourcePoint"/>
                        <mxPoint x="469" y="132.87" as="targetPoint"/>
                    </mxGeometry>
                </mxCell>
                <mxCell id="-7--BIwmi0uGW3nCbmP--8" value="" style="endArrow=none;html=1;dashed=1;fontSize=10;strokeWidth=1;" edge="1" parent="YBwU7Yhgo7duEBONtjg1-1">
                    <mxGeometry width="50" height="50" relative="1" as="geometry">
                        <mxPoint x="444" y="92.27" as="sourcePoint"/>
                        <mxPoint x="469" y="102.27000000000001" as="targetPoint"/>
                    </mxGeometry>
                </mxCell>
                <mxCell id="-7--BIwmi0uGW3nCbmP--9" value="" style="endArrow=none;html=1;dashed=1;fontSize=10;strokeWidth=1;" edge="1" parent="YBwU7Yhgo7duEBONtjg1-1">
                    <mxGeometry width="50" height="50" relative="1" as="geometry">
                        <mxPoint x="494" y="92.26999999999998" as="sourcePoint"/>
                        <mxPoint x="469" y="102.26999999999998" as="targetPoint"/>
                        <Array as="points"/>
                    </mxGeometry>
                </mxCell>
                <mxCell id="-7--BIwmi0uGW3nCbmP--10" value="Local" style="text;html=1;strokeColor=none;fillColor=none;align=center;verticalAlign=middle;whiteSpace=wrap;rounded=0;dashed=1;fontSize=8;" vertex="1" parent="YBwU7Yhgo7duEBONtjg1-1">
                    <mxGeometry x="438.6" y="50" width="60" height="10" as="geometry"/>
                </mxCell>
                <mxCell id="-7--BIwmi0uGW3nCbmP--11" value="Cloud" style="text;html=1;strokeColor=none;fillColor=none;align=center;verticalAlign=middle;whiteSpace=wrap;rounded=0;dashed=1;fontSize=8;" vertex="1" parent="YBwU7Yhgo7duEBONtjg1-1">
                    <mxGeometry x="440" y="130" width="60" height="20" as="geometry"/>
                </mxCell>
                <mxCell id="-7--BIwmi0uGW3nCbmP--12" value="Cloud" style="text;html=1;strokeColor=none;fillColor=none;align=center;verticalAlign=middle;whiteSpace=wrap;rounded=0;dashed=1;fontSize=8;" vertex="1" parent="YBwU7Yhgo7duEBONtjg1-1">
                    <mxGeometry x="438.6" y="160" width="60" height="30" as="geometry"/>
                </mxCell>
            </root>
        </mxGraphModel>
    </diagram>
    <diagram id="X8M8vnX4R1U2SffRTA0S" name="FilesStructure">
        <mxGraphModel dx="1040" dy="538" grid="1" gridSize="10" guides="1" tooltips="1" connect="1" arrows="1" fold="1" page="1" pageScale="1" pageWidth="827" pageHeight="1169" math="0" shadow="0">
            <root>
                <mxCell id="2vhV4SwqsyUr6rZf_Kq7-0"/>
                <mxCell id="2vhV4SwqsyUr6rZf_Kq7-1" parent="2vhV4SwqsyUr6rZf_Kq7-0"/>
                <mxCell id="DqqQXovIVW6XORx00sQF-3" style="edgeStyle=none;html=1;exitX=0;exitY=0;exitDx=80;exitDy=65;exitPerimeter=0;entryX=0;entryY=0.5;entryDx=0;entryDy=0;fontSize=10;startArrow=none;startFill=0;endArrow=classic;endFill=1;strokeWidth=1;" edge="1" parent="2vhV4SwqsyUr6rZf_Kq7-1" source="2vhV4SwqsyUr6rZf_Kq7-2" target="DqqQXovIVW6XORx00sQF-1">
                    <mxGeometry relative="1" as="geometry"/>
                </mxCell>
                <mxCell id="DqqQXovIVW6XORx00sQF-4" style="edgeStyle=none;html=1;exitX=0;exitY=0;exitDx=80;exitDy=65;exitPerimeter=0;entryX=0;entryY=0.5;entryDx=0;entryDy=0;fontSize=10;startArrow=none;startFill=0;endArrow=classic;endFill=1;strokeWidth=1;" edge="1" parent="2vhV4SwqsyUr6rZf_Kq7-1" source="2vhV4SwqsyUr6rZf_Kq7-2" target="DqqQXovIVW6XORx00sQF-2">
                    <mxGeometry relative="1" as="geometry"/>
                </mxCell>
                <mxCell id="2vhV4SwqsyUr6rZf_Kq7-2" value="&lt;font style=&quot;font-size: 10px&quot;&gt;model.py&lt;/font&gt;" style="shape=note;whiteSpace=wrap;html=1;backgroundOutline=1;darkOpacity=0.05;fontSize=8;fillColor=#e3c800;fontColor=#000000;strokeColor=#B09500;" vertex="1" parent="2vhV4SwqsyUr6rZf_Kq7-1">
                    <mxGeometry x="120" y="60" width="80" height="100" as="geometry"/>
                </mxCell>
                <mxCell id="wXUy1j4XwK-e5VrGoCYb-0" value="&lt;font style=&quot;font-size: 10px&quot;&gt;deploy.py&lt;/font&gt;" style="shape=note;whiteSpace=wrap;html=1;backgroundOutline=1;darkOpacity=0.05;fontSize=8;fillColor=#e3c800;fontColor=#000000;strokeColor=#B09500;" vertex="1" parent="2vhV4SwqsyUr6rZf_Kq7-1">
                    <mxGeometry x="120" y="300" width="80" height="100" as="geometry"/>
                </mxCell>
                <mxCell id="wXUy1j4XwK-e5VrGoCYb-1" value="&lt;font style=&quot;font-size: 10px&quot;&gt;get_env.py&lt;/font&gt;" style="shape=note;whiteSpace=wrap;html=1;backgroundOutline=1;darkOpacity=0.05;fontSize=8;fillColor=#e3c800;fontColor=#000000;strokeColor=#B09500;" vertex="1" parent="2vhV4SwqsyUr6rZf_Kq7-1">
                    <mxGeometry x="120" y="420" width="80" height="100" as="geometry"/>
                </mxCell>
                <mxCell id="wXUy1j4XwK-e5VrGoCYb-2" value="environment.yml" style="shape=note;whiteSpace=wrap;html=1;backgroundOutline=1;darkOpacity=0.05;fontSize=10;fillColor=#0050ef;fontColor=#ffffff;strokeColor=#001DBC;" vertex="1" parent="2vhV4SwqsyUr6rZf_Kq7-1">
                    <mxGeometry x="120" y="540" width="80" height="100" as="geometry"/>
                </mxCell>
                <mxCell id="wXUy1j4XwK-e5VrGoCYb-4" value="Model file" style="shape=card;whiteSpace=wrap;html=1;fontSize=10;fillColor=#60a917;fontColor=#ffffff;strokeColor=#2D7600;" vertex="1" parent="2vhV4SwqsyUr6rZf_Kq7-1">
                    <mxGeometry x="120" y="180" width="80" height="100" as="geometry"/>
                </mxCell>
                <mxCell id="wXUy1j4XwK-e5VrGoCYb-5" value="&lt;span style=&quot;font-size: 10px&quot;&gt;ping.py&lt;/span&gt;" style="shape=note;whiteSpace=wrap;html=1;backgroundOutline=1;darkOpacity=0.05;fontSize=8;fillColor=#e3c800;fontColor=#000000;strokeColor=#B09500;" vertex="1" parent="2vhV4SwqsyUr6rZf_Kq7-1">
                    <mxGeometry x="120" y="660" width="80" height="100" as="geometry"/>
                </mxCell>
                <mxCell id="Zl_vc4rlJ-Jza9xvQmKL-0" value="" style="endArrow=none;html=1;fontColor=#FFFFFF;entryX=0.516;entryY=1.023;entryDx=0;entryDy=0;entryPerimeter=0;" edge="1" parent="2vhV4SwqsyUr6rZf_Kq7-1">
                    <mxGeometry width="50" height="50" relative="1" as="geometry">
                        <mxPoint x="80" y="780" as="sourcePoint"/>
                        <mxPoint x="80.38007999999991" y="40.000000000000014" as="targetPoint"/>
                        <Array as="points"/>
                    </mxGeometry>
                </mxCell>
                <mxCell id="Zl_vc4rlJ-Jza9xvQmKL-1" value="Project_root/model_development/" style="text;html=1;strokeColor=none;fillColor=none;align=center;verticalAlign=middle;whiteSpace=wrap;rounded=0;fontSize=10;" vertex="1" parent="2vhV4SwqsyUr6rZf_Kq7-1">
                    <mxGeometry y="10" width="170" height="20" as="geometry"/>
                </mxCell>
                <mxCell id="Zl_vc4rlJ-Jza9xvQmKL-2" value="" style="endArrow=none;html=1;fontSize=10;strokeWidth=1;entryX=0;entryY=0.5;entryDx=0;entryDy=0;entryPerimeter=0;" edge="1" parent="2vhV4SwqsyUr6rZf_Kq7-1" target="2vhV4SwqsyUr6rZf_Kq7-2">
                    <mxGeometry width="50" height="50" relative="1" as="geometry">
                        <mxPoint x="80" y="110" as="sourcePoint"/>
                        <mxPoint x="110" y="109.86" as="targetPoint"/>
                    </mxGeometry>
                </mxCell>
                <mxCell id="Zl_vc4rlJ-Jza9xvQmKL-4" value="" style="endArrow=none;html=1;fontSize=10;strokeWidth=1;entryX=0;entryY=0.5;entryDx=0;entryDy=0;entryPerimeter=0;" edge="1" parent="2vhV4SwqsyUr6rZf_Kq7-1">
                    <mxGeometry width="50" height="50" relative="1" as="geometry">
                        <mxPoint x="80" y="240" as="sourcePoint"/>
                        <mxPoint x="120" y="240" as="targetPoint"/>
                    </mxGeometry>
                </mxCell>
                <mxCell id="Zl_vc4rlJ-Jza9xvQmKL-5" value="" style="endArrow=none;html=1;fontSize=10;strokeWidth=1;entryX=0;entryY=0.5;entryDx=0;entryDy=0;entryPerimeter=0;" edge="1" parent="2vhV4SwqsyUr6rZf_Kq7-1">
                    <mxGeometry width="50" height="50" relative="1" as="geometry">
                        <mxPoint x="80" y="349.86" as="sourcePoint"/>
                        <mxPoint x="120" y="349.86" as="targetPoint"/>
                        <Array as="points"/>
                    </mxGeometry>
                </mxCell>
                <mxCell id="Zl_vc4rlJ-Jza9xvQmKL-6" value="" style="endArrow=none;html=1;fontSize=10;strokeWidth=1;entryX=0;entryY=0.5;entryDx=0;entryDy=0;entryPerimeter=0;" edge="1" parent="2vhV4SwqsyUr6rZf_Kq7-1">
                    <mxGeometry width="50" height="50" relative="1" as="geometry">
                        <mxPoint x="80" y="469.86" as="sourcePoint"/>
                        <mxPoint x="120" y="469.86" as="targetPoint"/>
                        <Array as="points"/>
                    </mxGeometry>
                </mxCell>
                <mxCell id="Zl_vc4rlJ-Jza9xvQmKL-7" value="" style="endArrow=none;html=1;fontSize=10;strokeWidth=1;entryX=0;entryY=0.5;entryDx=0;entryDy=0;entryPerimeter=0;" edge="1" parent="2vhV4SwqsyUr6rZf_Kq7-1">
                    <mxGeometry width="50" height="50" relative="1" as="geometry">
                        <mxPoint x="80" y="589.86" as="sourcePoint"/>
                        <mxPoint x="120" y="589.86" as="targetPoint"/>
                        <Array as="points"/>
                    </mxGeometry>
                </mxCell>
                <mxCell id="Zl_vc4rlJ-Jza9xvQmKL-8" value="" style="endArrow=none;html=1;fontSize=10;strokeWidth=1;entryX=0;entryY=0.5;entryDx=0;entryDy=0;entryPerimeter=0;" edge="1" parent="2vhV4SwqsyUr6rZf_Kq7-1">
                    <mxGeometry width="50" height="50" relative="1" as="geometry">
                        <mxPoint x="80" y="709.86" as="sourcePoint"/>
                        <mxPoint x="120" y="709.86" as="targetPoint"/>
                        <Array as="points"/>
                    </mxGeometry>
                </mxCell>
                <mxCell id="Zl_vc4rlJ-Jza9xvQmKL-9" value="others..." style="text;html=1;strokeColor=none;fillColor=none;align=center;verticalAlign=middle;whiteSpace=wrap;rounded=0;fontSize=10;direction=south;horizontal=0;" vertex="1" parent="2vhV4SwqsyUr6rZf_Kq7-1">
                    <mxGeometry x="77.5" y="710" width="15" height="70" as="geometry"/>
                </mxCell>
                <mxCell id="DqqQXovIVW6XORx00sQF-1" value="init()" style="rounded=0;whiteSpace=wrap;html=1;fontSize=10;" vertex="1" parent="2vhV4SwqsyUr6rZf_Kq7-1">
                    <mxGeometry x="240" y="60" width="80" height="40" as="geometry"/>
                </mxCell>
                <mxCell id="DqqQXovIVW6XORx00sQF-2" value="run()" style="rounded=0;whiteSpace=wrap;html=1;fontSize=10;" vertex="1" parent="2vhV4SwqsyUr6rZf_Kq7-1">
                    <mxGeometry x="240" y="110" width="80" height="40" as="geometry"/>
                </mxCell>
                <mxCell id="DqqQXovIVW6XORx00sQF-5" value="Packed model snapshot" style="text;html=1;strokeColor=none;fillColor=none;align=left;verticalAlign=middle;whiteSpace=wrap;rounded=0;fontSize=10;" vertex="1" parent="2vhV4SwqsyUr6rZf_Kq7-1">
                    <mxGeometry x="240" y="180" width="280" height="100" as="geometry"/>
                </mxCell>
                <mxCell id="DqqQXovIVW6XORx00sQF-6" value="Created for model deployment, need import azure liblaries.&amp;nbsp;&lt;br&gt;Include:&lt;br&gt;&lt;span&gt;&#9;&lt;/span&gt;&lt;span&gt;&#9;&lt;/span&gt;- Workspace()&lt;br&gt;&lt;span&gt;&#9;&lt;/span&gt;&lt;span&gt;&#9;&lt;/span&gt;-&amp;nbsp;ComputeTarget()&lt;br&gt;&lt;span&gt;&#9;&lt;/span&gt;-&amp;nbsp;InferenceConfig()&lt;br&gt;- Deployment type [LocalWebservice(), AciWebservice()]&lt;br&gt;- Model.deploy()" style="text;html=1;strokeColor=none;fillColor=none;align=left;verticalAlign=middle;whiteSpace=wrap;rounded=0;fontSize=10;" vertex="1" parent="2vhV4SwqsyUr6rZf_Kq7-1">
                    <mxGeometry x="240" y="300" width="280" height="100" as="geometry"/>
                </mxCell>
                <mxCell id="DqqQXovIVW6XORx00sQF-7" value="Implemented to load the model into global variable." style="text;html=1;strokeColor=none;fillColor=none;align=left;verticalAlign=middle;whiteSpace=wrap;rounded=0;fontSize=10;" vertex="1" parent="2vhV4SwqsyUr6rZf_Kq7-1">
                    <mxGeometry x="330" y="60" width="280" height="40" as="geometry"/>
                </mxCell>
                <mxCell id="DqqQXovIVW6XORx00sQF-8" value="Implemented to handle the request and return output" style="text;html=1;strokeColor=none;fillColor=none;align=left;verticalAlign=middle;whiteSpace=wrap;rounded=0;fontSize=10;" vertex="1" parent="2vhV4SwqsyUr6rZf_Kq7-1">
                    <mxGeometry x="330" y="110" width="280" height="40" as="geometry"/>
                </mxCell>
                <mxCell id="DqqQXovIVW6XORx00sQF-9" value="Created to the setup of an environment and load environment.yml file." style="text;html=1;strokeColor=none;fillColor=none;align=left;verticalAlign=middle;whiteSpace=wrap;rounded=0;fontSize=10;" vertex="1" parent="2vhV4SwqsyUr6rZf_Kq7-1">
                    <mxGeometry x="240" y="420" width="280" height="100" as="geometry"/>
                </mxCell>
                <mxCell id="DqqQXovIVW6XORx00sQF-10" value="File used to test a model API." style="text;html=1;strokeColor=none;fillColor=none;align=left;verticalAlign=middle;whiteSpace=wrap;rounded=0;fontSize=10;" vertex="1" parent="2vhV4SwqsyUr6rZf_Kq7-1">
                    <mxGeometry x="240" y="660" width="280" height="100" as="geometry"/>
                </mxCell>
            </root>
        </mxGraphModel>
    </diagram>
    <diagram id="37lXdC4V4nz9cZ9cC6tz" name="General">
        <mxGraphModel dx="1506" dy="646" grid="1" gridSize="10" guides="1" tooltips="1" connect="1" arrows="1" fold="1" page="1" pageScale="1" pageWidth="827" pageHeight="1169" math="0" shadow="0">
            <root>
                <mxCell id="0"/>
                <mxCell id="1" parent="0"/>
                <mxCell id="5" value="" style="rounded=0;whiteSpace=wrap;html=1;" parent="1" vertex="1">
                    <mxGeometry x="40" y="50" width="100" height="260" as="geometry"/>
                </mxCell>
                <mxCell id="6" value="Data" style="text;html=1;strokeColor=default;fillColor=none;align=center;verticalAlign=middle;whiteSpace=wrap;rounded=0;" parent="1" vertex="1">
                    <mxGeometry x="40" y="50" width="100" height="40" as="geometry"/>
                </mxCell>
                <mxCell id="7" value="Databases" style="shape=cylinder3;whiteSpace=wrap;html=1;boundedLbl=1;backgroundOutline=1;size=15;strokeColor=default;" parent="1" vertex="1">
                    <mxGeometry x="60" y="110" width="60" height="80" as="geometry"/>
                </mxCell>
                <mxCell id="8" value="Layer I" style="text;html=1;strokeColor=#2D7600;fillColor=#60a917;align=center;verticalAlign=middle;whiteSpace=wrap;rounded=0;fontColor=#ffffff;" parent="1" vertex="1">
                    <mxGeometry x="40" y="10" width="100" height="30" as="geometry"/>
                </mxCell>
                <mxCell id="10" value="Files" style="shape=note;whiteSpace=wrap;html=1;backgroundOutline=1;darkOpacity=0.05;strokeColor=default;" parent="1" vertex="1">
                    <mxGeometry x="60" y="210" width="60" height="80" as="geometry"/>
                </mxCell>
                <mxCell id="11" value="Layer II" style="text;html=1;strokeColor=#2D7600;fillColor=#60a917;align=center;verticalAlign=middle;whiteSpace=wrap;rounded=0;fontColor=#ffffff;" parent="1" vertex="1">
                    <mxGeometry x="220" y="10" width="360" height="30" as="geometry"/>
                </mxCell>
                <mxCell id="12" value="" style="rounded=0;whiteSpace=wrap;html=1;" parent="1" vertex="1">
                    <mxGeometry x="220" y="50" width="100" height="220" as="geometry"/>
                </mxCell>
                <mxCell id="13" value="Learning" style="text;html=1;strokeColor=default;fillColor=none;align=center;verticalAlign=middle;whiteSpace=wrap;rounded=0;" parent="1" vertex="1">
                    <mxGeometry x="220" y="50" width="100" height="40" as="geometry"/>
                </mxCell>
                <mxCell id="14" value="Python" style="rounded=0;whiteSpace=wrap;html=1;strokeColor=default;" parent="1" vertex="1">
                    <mxGeometry x="230" y="100" width="80" height="60" as="geometry"/>
                </mxCell>
                <mxCell id="16" value="R" style="rounded=0;whiteSpace=wrap;html=1;strokeColor=default;" parent="1" vertex="1">
                    <mxGeometry x="230" y="190" width="80" height="60" as="geometry"/>
                </mxCell>
                <mxCell id="19" value="MODEL snapshot" style="shape=card;whiteSpace=wrap;html=1;strokeColor=default;" parent="1" vertex="1">
                    <mxGeometry x="360" y="50" width="80" height="100" as="geometry"/>
                </mxCell>
                <mxCell id="23" value="" style="rounded=0;whiteSpace=wrap;html=1;" parent="1" vertex="1">
                    <mxGeometry x="480" y="50" width="100" height="140" as="geometry"/>
                </mxCell>
                <mxCell id="24" value="Deploying" style="text;html=1;strokeColor=default;fillColor=none;align=center;verticalAlign=middle;whiteSpace=wrap;rounded=0;" parent="1" vertex="1">
                    <mxGeometry x="480" y="50" width="100" height="40" as="geometry"/>
                </mxCell>
                <mxCell id="25" value="Python" style="rounded=0;whiteSpace=wrap;html=1;strokeColor=default;" parent="1" vertex="1">
                    <mxGeometry x="490" y="100" width="80" height="60" as="geometry"/>
                </mxCell>
                <mxCell id="31" value="Layer III" style="text;html=1;strokeColor=#2D7600;fillColor=#60a917;align=center;verticalAlign=middle;whiteSpace=wrap;rounded=0;fontColor=#ffffff;" parent="1" vertex="1">
                    <mxGeometry x="660" y="10" width="100" height="30" as="geometry"/>
                </mxCell>
                <mxCell id="32" value="" style="endArrow=classic;html=1;" parent="1" edge="1">
                    <mxGeometry width="50" height="50" relative="1" as="geometry">
                        <mxPoint x="150" y="150" as="sourcePoint"/>
                        <mxPoint x="210" y="150" as="targetPoint"/>
                    </mxGeometry>
                </mxCell>
                <mxCell id="33" value="" style="endArrow=classic;html=1;" parent="1" edge="1">
                    <mxGeometry width="50" height="50" relative="1" as="geometry">
                        <mxPoint x="330" y="129.89999999999998" as="sourcePoint"/>
                        <mxPoint x="350" y="129.89999999999998" as="targetPoint"/>
                    </mxGeometry>
                </mxCell>
                <mxCell id="34" value="" style="endArrow=classic;html=1;" parent="1" edge="1">
                    <mxGeometry width="50" height="50" relative="1" as="geometry">
                        <mxPoint x="450" y="129.88" as="sourcePoint"/>
                        <mxPoint x="470" y="129.79999999999998" as="targetPoint"/>
                    </mxGeometry>
                </mxCell>
                <mxCell id="35" value="" style="endArrow=classic;html=1;" parent="1" edge="1">
                    <mxGeometry width="50" height="50" relative="1" as="geometry">
                        <mxPoint x="150" y="280" as="sourcePoint"/>
                        <mxPoint x="650" y="280" as="targetPoint"/>
                    </mxGeometry>
                </mxCell>
                <mxCell id="36" value="" style="rounded=0;whiteSpace=wrap;html=1;" parent="1" vertex="1">
                    <mxGeometry x="660" y="50" width="100" height="260" as="geometry"/>
                </mxCell>
                <mxCell id="37" value="Model API" style="text;html=1;strokeColor=default;fillColor=none;align=center;verticalAlign=middle;whiteSpace=wrap;rounded=0;" parent="1" vertex="1">
                    <mxGeometry x="660" y="50" width="100" height="40" as="geometry"/>
                </mxCell>
                <mxCell id="40" value="" style="endArrow=classic;dashed=1;html=1;strokeWidth=2;endFill=1;" parent="1" edge="1">
                    <mxGeometry width="50" height="50" relative="1" as="geometry">
                        <mxPoint x="590" y="130" as="sourcePoint"/>
                        <mxPoint x="650" y="130" as="targetPoint"/>
                    </mxGeometry>
                </mxCell>
                <mxCell id="42" value="Container instance" style="shape=process;whiteSpace=wrap;html=1;backgroundOutline=1;strokeColor=default;" parent="1" vertex="1">
                    <mxGeometry x="670" y="100" width="80" height="60" as="geometry"/>
                </mxCell>
                <mxCell id="43" value="Kubernetes" style="shape=process;whiteSpace=wrap;html=1;backgroundOutline=1;strokeColor=default;" parent="1" vertex="1">
                    <mxGeometry x="670" y="170" width="80" height="60" as="geometry"/>
                </mxCell>
                <mxCell id="44" value="Docker" style="shape=process;whiteSpace=wrap;html=1;backgroundOutline=1;strokeColor=default;" parent="1" vertex="1">
                    <mxGeometry x="670" y="240" width="80" height="60" as="geometry"/>
                </mxCell>
                <mxCell id="45" value="" style="endArrow=classic;html=1;" parent="1" edge="1">
                    <mxGeometry width="50" height="50" relative="1" as="geometry">
                        <mxPoint x="330" y="169" as="sourcePoint"/>
                        <mxPoint x="470" y="169" as="targetPoint"/>
                    </mxGeometry>
                </mxCell>
                <mxCell id="9HqSRvSPwxiQTIjvLTUN-45" value="DEV OPS" style="text;html=1;strokeColor=#006EAF;fillColor=#1ba1e2;align=center;verticalAlign=middle;whiteSpace=wrap;rounded=0;fontColor=#ffffff;" parent="1" vertex="1">
                    <mxGeometry x="40" y="360" width="720" height="30" as="geometry"/>
                </mxCell>
                <mxCell id="9HqSRvSPwxiQTIjvLTUN-46" value="" style="endArrow=classic;html=1;" parent="1" edge="1">
                    <mxGeometry width="50" height="50" relative="1" as="geometry">
                        <mxPoint x="269.66" y="290" as="sourcePoint"/>
                        <mxPoint x="269.66" y="350" as="targetPoint"/>
                    </mxGeometry>
                </mxCell>
                <mxCell id="9HqSRvSPwxiQTIjvLTUN-47" value="" style="endArrow=classic;html=1;" parent="1" edge="1">
                    <mxGeometry width="50" height="50" relative="1" as="geometry">
                        <mxPoint x="529.6600000000001" y="290" as="sourcePoint"/>
                        <mxPoint x="529.6600000000001" y="350" as="targetPoint"/>
                    </mxGeometry>
                </mxCell>
                <mxCell id="9HqSRvSPwxiQTIjvLTUN-48" value="" style="endArrow=none;html=1;" parent="1" edge="1">
                    <mxGeometry width="50" height="50" relative="1" as="geometry">
                        <mxPoint x="530" y="270" as="sourcePoint"/>
                        <mxPoint x="530" y="200" as="targetPoint"/>
                    </mxGeometry>
                </mxCell>
                <mxCell id="9HqSRvSPwxiQTIjvLTUN-49" value="" style="endArrow=none;html=1;" parent="1" edge="1">
                    <mxGeometry width="50" height="50" relative="1" as="geometry">
                        <mxPoint x="530" y="290" as="sourcePoint"/>
                        <mxPoint x="530" y="270" as="targetPoint"/>
                        <Array as="points">
                            <mxPoint x="540" y="280"/>
                        </Array>
                    </mxGeometry>
                </mxCell>
            </root>
        </mxGraphModel>
    </diagram>
    <diagram id="KBUH48QcouHKVdL_9amc" name="Detailed">
        <mxGraphModel dx="1506" dy="646" grid="1" gridSize="10" guides="1" tooltips="1" connect="1" arrows="1" fold="1" page="1" pageScale="1" pageWidth="827" pageHeight="1169" math="0" shadow="0">
            <root>
                <mxCell id="dT6tPpuuomGP5Soq900u-0"/>
                <mxCell id="dT6tPpuuomGP5Soq900u-1" parent="dT6tPpuuomGP5Soq900u-0"/>
                <mxCell id="A8kHXqiS0luxCTjHiV1M-8" value="BOTH" style="rounded=0;whiteSpace=wrap;html=1;strokeColor=default;verticalAlign=top;" parent="dT6tPpuuomGP5Soq900u-1" vertex="1">
                    <mxGeometry x="355" y="50" width="120" height="460" as="geometry"/>
                </mxCell>
                <mxCell id="v4HfIp-7AOBhsjALYrkc-0" value="Detailed implementation" style="text;html=1;strokeColor=#2D7600;fillColor=#60a917;align=center;verticalAlign=middle;whiteSpace=wrap;rounded=0;fontColor=#ffffff;" parent="dT6tPpuuomGP5Soq900u-1" vertex="1">
                    <mxGeometry x="40" y="10" width="750" height="30" as="geometry"/>
                </mxCell>
                <mxCell id="v4HfIp-7AOBhsjALYrkc-1" value="Developmend and test" style="text;html=1;strokeColor=#6F0000;fillColor=#a20025;align=center;verticalAlign=middle;whiteSpace=wrap;rounded=0;fontColor=#ffffff;" parent="dT6tPpuuomGP5Soq900u-1" vertex="1">
                    <mxGeometry x="40" y="50" width="310" height="30" as="geometry"/>
                </mxCell>
                <mxCell id="v4HfIp-7AOBhsjALYrkc-2" value="Production" style="text;html=1;strokeColor=#6F0000;fillColor=#a20025;align=center;verticalAlign=middle;whiteSpace=wrap;rounded=0;fontColor=#ffffff;" parent="dT6tPpuuomGP5Soq900u-1" vertex="1">
                    <mxGeometry x="480" y="50" width="310" height="30" as="geometry"/>
                </mxCell>
                <mxCell id="v4HfIp-7AOBhsjALYrkc-4" value="" style="rounded=0;whiteSpace=wrap;html=1;strokeColor=default;" parent="dT6tPpuuomGP5Soq900u-1" vertex="1">
                    <mxGeometry x="40" y="100" width="750" height="140" as="geometry"/>
                </mxCell>
                <mxCell id="v4HfIp-7AOBhsjALYrkc-8" value="Data" style="text;html=1;strokeColor=default;fillColor=none;align=center;verticalAlign=middle;whiteSpace=wrap;rounded=0;direction=south;" parent="dT6tPpuuomGP5Soq900u-1" vertex="1">
                    <mxGeometry x="40" y="100" width="40" height="140" as="geometry"/>
                </mxCell>
                <mxCell id="qfjTEhPqNQLRDdk_QflH-0" value="" style="rounded=0;whiteSpace=wrap;html=1;strokeColor=default;" parent="dT6tPpuuomGP5Soq900u-1" vertex="1">
                    <mxGeometry x="40" y="320" width="310" height="140" as="geometry"/>
                </mxCell>
                <mxCell id="qfjTEhPqNQLRDdk_QflH-1" value="Learning" style="text;html=1;strokeColor=default;fillColor=none;align=center;verticalAlign=middle;whiteSpace=wrap;rounded=0;direction=south;horizontal=0;" parent="dT6tPpuuomGP5Soq900u-1" vertex="1">
                    <mxGeometry x="40" y="320" width="40" height="140" as="geometry"/>
                </mxCell>
                <mxCell id="A8kHXqiS0luxCTjHiV1M-9" style="edgeStyle=none;html=1;exitX=1;exitY=0.5;exitDx=0;exitDy=0;startArrow=classic;startFill=1;endArrow=classic;endFill=1;" parent="dT6tPpuuomGP5Soq900u-1" source="fO6DwmvLlIOiLnUfMsCo-0" target="fO6DwmvLlIOiLnUfMsCo-6" edge="1">
                    <mxGeometry relative="1" as="geometry"/>
                </mxCell>
                <mxCell id="fO6DwmvLlIOiLnUfMsCo-0" value="Jupyter" style="shape=process;whiteSpace=wrap;html=1;backgroundOutline=1;strokeColor=default;" parent="dT6tPpuuomGP5Soq900u-1" vertex="1">
                    <mxGeometry x="135" y="360" width="120" height="60" as="geometry"/>
                </mxCell>
                <mxCell id="fO6DwmvLlIOiLnUfMsCo-6" value="" style="aspect=fixed;html=1;points=[];align=center;image;fontSize=12;image=img/lib/azure2/security/Key_Vaults.svg;strokeColor=default;" parent="dT6tPpuuomGP5Soq900u-1" vertex="1">
                    <mxGeometry x="381" y="320" width="68" height="68" as="geometry"/>
                </mxCell>
                <mxCell id="fO6DwmvLlIOiLnUfMsCo-7" value="" style="aspect=fixed;html=1;points=[];align=center;image;fontSize=12;image=img/lib/azure2/storage/Storage_Accounts.svg;strokeColor=default;" parent="dT6tPpuuomGP5Soq900u-1" vertex="1">
                    <mxGeometry x="306" y="129" width="65" height="52" as="geometry"/>
                </mxCell>
                <mxCell id="fO6DwmvLlIOiLnUfMsCo-8" value="Azure SQL Server" style="text;html=1;strokeColor=none;fillColor=none;align=center;verticalAlign=middle;whiteSpace=wrap;rounded=0;" parent="dT6tPpuuomGP5Soq900u-1" vertex="1">
                    <mxGeometry x="150" y="187" width="76" height="30" as="geometry"/>
                </mxCell>
                <mxCell id="A8kHXqiS0luxCTjHiV1M-0" value="Azure Storage" style="text;html=1;strokeColor=none;fillColor=none;align=center;verticalAlign=middle;whiteSpace=wrap;rounded=0;" parent="dT6tPpuuomGP5Soq900u-1" vertex="1">
                    <mxGeometry x="300.5" y="187" width="76" height="30" as="geometry"/>
                </mxCell>
                <mxCell id="A8kHXqiS0luxCTjHiV1M-1" value="" style="aspect=fixed;html=1;points=[];align=center;image;fontSize=12;image=img/lib/azure2/databases/Azure_SQL.svg;strokeColor=default;" parent="dT6tPpuuomGP5Soq900u-1" vertex="1">
                    <mxGeometry x="156" y="132" width="64" height="46" as="geometry"/>
                </mxCell>
                <mxCell id="A8kHXqiS0luxCTjHiV1M-2" value="" style="aspect=fixed;html=1;points=[];align=center;image;fontSize=12;image=img/lib/azure2/databases/Azure_Synapse_Analytics.svg;strokeColor=default;" parent="dT6tPpuuomGP5Soq900u-1" vertex="1">
                    <mxGeometry x="660" y="120.5" width="60" height="69" as="geometry"/>
                </mxCell>
                <mxCell id="A8kHXqiS0luxCTjHiV1M-3" value="Azure Synapse Analytics" style="text;html=1;strokeColor=none;fillColor=none;align=center;verticalAlign=middle;whiteSpace=wrap;rounded=0;" parent="dT6tPpuuomGP5Soq900u-1" vertex="1">
                    <mxGeometry x="640" y="189.5" width="100" height="30" as="geometry"/>
                </mxCell>
                <mxCell id="A8kHXqiS0luxCTjHiV1M-4" value="" style="sketch=0;pointerEvents=1;shadow=0;dashed=0;html=1;strokeColor=none;fillColor=#505050;labelPosition=center;verticalLabelPosition=bottom;outlineConnect=0;verticalAlign=top;align=center;shape=mxgraph.office.clouds.cloud_sharepoint;" parent="dT6tPpuuomGP5Soq900u-1" vertex="1">
                    <mxGeometry x="460" y="126" width="101" height="61" as="geometry"/>
                </mxCell>
                <mxCell id="A8kHXqiS0luxCTjHiV1M-6" value="Sharepoint" style="text;html=1;strokeColor=none;fillColor=none;align=center;verticalAlign=middle;whiteSpace=wrap;rounded=0;" parent="dT6tPpuuomGP5Soq900u-1" vertex="1">
                    <mxGeometry x="472.5" y="190" width="76" height="29.5" as="geometry"/>
                </mxCell>
            </root>
        </mxGraphModel>
    </diagram>
</mxfile>